<svg width="1440" height="931" viewBox="0 0 1440 931" fill="none" xmlns="http://www.w3.org/2000/svg">
<g style="mix-blend-mode:plus-lighter" opacity="0.1" filter="url(#filter0_f_17379_826)">
<path fill-rule="evenodd" clip-rule="evenodd" d="M703.677 562.211C796.797 562.218 892.683 599.784 972.351 565.973C1066.05 526.208 1134.28 454.291 1138.79 377.55C1143.43 298.617 1070.53 231.825 995.45 172.928C914.408 109.352 825.149 40.0756 703.677 36.2098C578.842 32.2371 463.403 85.7094 384.164 153.475C311.811 215.352 294.705 297.827 304.542 377.55C313.464 449.857 348.673 525.969 435.057 565.935C512.77 601.889 610.576 562.204 703.677 562.211Z" fill="url(#paint0_linear_17379_826)"/>
</g>
<g style="mix-blend-mode:plus-lighter" opacity="0.01" filter="url(#filter1_f_17379_826)">
<path fill-rule="evenodd" clip-rule="evenodd" d="M776.285 431.65C879.525 432.897 988.453 465.511 1068.7 447.687C1147.38 430.209 1087.46 394.661 1064.41 367.651C1047.82 348.201 1003.01 333.635 957.998 317.914C902.423 298.501 866.378 266.623 776.285 267.005C686.119 267.388 659.224 300.791 600.124 319.433C548.611 335.683 473.106 346.58 457.23 367.651C438.151 392.971 432.397 425.641 508.584 440.923C584.003 456.052 682.872 430.522 776.285 431.65Z" fill="#FF2C2F"/>
</g>
<g opacity="0.5" filter="url(#filter2_f_17379_826)">
<path d="M545 401.002C692.5 289.002 719.552 -427.179 713.867 -658.998L720.5 -658.998C715.194 -305.966 759.552 293.932 896 401.002L545 401.002Z" fill="url(#paint1_linear_17379_826)"/>
</g>
<g opacity="0.6" filter="url(#filter3_f_17379_826)">
<path d="M708.5 -61.498C706.1 146.102 612.167 345.669 565.5 419.502H863C717 89.002 738.5 -32.998 728.5 -168.998C720.5 -277.798 711.833 -550.331 708.5 -672.998C709.5 -555.665 710.9 -269.098 708.5 -61.498Z" fill="#FF0004"/>
</g>
<g style="mix-blend-mode:plus-lighter" opacity="0.8" filter="url(#filter4_f_17379_826)">
<path d="M716 -657.998L716 485.002" stroke="url(#paint2_linear_17379_826)" stroke-width="4"/>
</g>
<g style="mix-blend-mode:plus-lighter" opacity="0.8" filter="url(#filter5_f_17379_826)">
<path d="M716 -657.998L716 485.002" stroke="#FF000D"/>
</g>
<g style="mix-blend-mode:plus-lighter" opacity="0.3" filter="url(#filter6_f_17379_826)">
<path d="M716 -657.998L716 412.002" stroke="url(#paint3_linear_17379_826)" stroke-width="10"/>
</g>
<g style="mix-blend-mode:plus-lighter" filter="url(#filter7_f_17379_826)">
<path d="M570 433.002C599 397.002 653.57 282.049 669.5 202.002C686.117 118.502 716.5 10.502 716.5 -171.998" stroke="url(#paint4_linear_17379_826)" stroke-width="6"/>
</g>
<g style="mix-blend-mode:plus-lighter" opacity="0.6" filter="url(#filter8_f_17379_826)">
<path d="M886 432.502C846.667 400.502 798 323.502 755 157.002C725.217 41.6787 716.5 -107.998 716.5 -170.998" stroke="url(#paint5_linear_17379_826)" stroke-width="9"/>
</g>
<g style="mix-blend-mode:plus-lighter" opacity="0.4" filter="url(#filter9_f_17379_826)">
<path d="M822 447.002C791.333 388.335 720 160.502 715 21.502C712.987 -34.4619 715 -100.998 715 -118.498" stroke="url(#paint6_linear_17379_826)" stroke-width="6"/>
</g>
<g style="mix-blend-mode:plus-lighter" opacity="0.5" filter="url(#filter10_f_17379_826)">
<path d="M630 441.002C653.167 392.335 690.5 248.502 716.5 39.502C725.388 -31.9473 716.5 -95.998 716.5 -117.998" stroke="url(#paint7_linear_17379_826)" stroke-width="6"/>
</g>
<g style="mix-blend-mode:plus-lighter" filter="url(#filter11_f_17379_826)">
<path d="M760.5 453.002C748.667 382.169 739 326.002 728.5 159.502C725.851 117.499 715.5 -70.498 715.5 -85.498" stroke="url(#paint8_linear_17379_826)" stroke-width="3"/>
</g>
<g style="mix-blend-mode:plus-lighter" opacity="0.15" filter="url(#filter12_f_17379_826)">
<path d="M688.5 453.002C696 392.335 715 233.102 715 81.502C715 -70.0981 715 -114.998 715 -118.498" stroke="url(#paint9_linear_17379_826)" stroke-width="12"/>
</g>
<g style="mix-blend-mode:plus-lighter" opacity="0.6" filter="url(#filter13_f_17379_826)">
<path d="M852.499 454.002C812.833 394.335 732.499 242.502 720.499 75.002C716.097 13.5594 720.499 -46.998 720.499 -69.498" stroke="url(#paint10_linear_17379_826)" stroke-width="8"/>
</g>
<g style="mix-blend-mode:plus-lighter" opacity="0.6" filter="url(#filter14_f_17379_826)">
<path d="M643.652 270.143C631.634 343.218 570.876 415.83 542 443.002H877C818.913 384.727 779.02 172.054 766.335 73.002V147.58C766.335 176.255 784.696 305.986 793.876 367.268L754.818 219.268C757.655 257.617 760.526 340.905 749.309 367.268C741.698 340.905 725.774 228.71 718.764 175.908L705.244 388.658C704.576 320.439 702.339 194.524 698.734 236.611C695.129 278.699 652.498 360.137 631.634 395.596L663.181 167.236C661.679 171.09 655.67 197.068 643.652 270.143Z" fill="#3A1616"/>
</g>
<defs>
<filter id="filter0_f_17379_826" x="-48" y="-313.998" width="1537" height="1245" filterUnits="userSpaceOnUse" color-interpolation-filters="sRGB">
<feFlood flood-opacity="0" result="BackgroundImageFix"/>
<feBlend mode="normal" in="SourceGraphic" in2="BackgroundImageFix" result="shape"/>
<feGaussianBlur stdDeviation="175" result="effect1_foregroundBlur_17379_826"/>
</filter>
<filter id="filter1_f_17379_826" x="125" y="-52.998" width="1303" height="826" filterUnits="userSpaceOnUse" color-interpolation-filters="sRGB">
<feFlood flood-opacity="0" result="BackgroundImageFix"/>
<feBlend mode="normal" in="SourceGraphic" in2="BackgroundImageFix" result="shape"/>
<feGaussianBlur stdDeviation="160" result="effect1_foregroundBlur_17379_826"/>
</filter>
<filter id="filter2_f_17379_826" x="505" y="-698.998" width="431" height="1140" filterUnits="userSpaceOnUse" color-interpolation-filters="sRGB">
<feFlood flood-opacity="0" result="BackgroundImageFix"/>
<feBlend mode="normal" in="SourceGraphic" in2="BackgroundImageFix" result="shape"/>
<feGaussianBlur stdDeviation="20" result="effect1_foregroundBlur_17379_826"/>
</filter>
<filter id="filter3_f_17379_826" x="484.5" y="-753.998" width="459.5" height="1254.5" filterUnits="userSpaceOnUse" color-interpolation-filters="sRGB">
<feFlood flood-opacity="0" result="BackgroundImageFix"/>
<feBlend mode="normal" in="SourceGraphic" in2="BackgroundImageFix" result="shape"/>
<feGaussianBlur stdDeviation="40.5" result="effect1_foregroundBlur_17379_826"/>
</filter>
<filter id="filter4_f_17379_826" x="694" y="-677.998" width="44" height="1183" filterUnits="userSpaceOnUse" color-interpolation-filters="sRGB">
<feFlood flood-opacity="0" result="BackgroundImageFix"/>
<feBlend mode="normal" in="SourceGraphic" in2="BackgroundImageFix" result="shape"/>
<feGaussianBlur stdDeviation="10" result="effect1_foregroundBlur_17379_826"/>
</filter>
<filter id="filter5_f_17379_826" x="702.5" y="-670.998" width="27" height="1169" filterUnits="userSpaceOnUse" color-interpolation-filters="sRGB">
<feFlood flood-opacity="0" result="BackgroundImageFix"/>
<feBlend mode="normal" in="SourceGraphic" in2="BackgroundImageFix" result="shape"/>
<feGaussianBlur stdDeviation="6.5" result="effect1_foregroundBlur_17379_826"/>
</filter>
<filter id="filter6_f_17379_826" x="661" y="-707.998" width="110" height="1170" filterUnits="userSpaceOnUse" color-interpolation-filters="sRGB">
<feFlood flood-opacity="0" result="BackgroundImageFix"/>
<feBlend mode="normal" in="SourceGraphic" in2="BackgroundImageFix" result="shape"/>
<feGaussianBlur stdDeviation="25" result="effect1_foregroundBlur_17379_826"/>
</filter>
<filter id="filter7_f_17379_826" x="550.664" y="-188.998" width="185.836" height="640.882" filterUnits="userSpaceOnUse" color-interpolation-filters="sRGB">
<feFlood flood-opacity="0" result="BackgroundImageFix"/>
<feBlend mode="normal" in="SourceGraphic" in2="BackgroundImageFix" result="shape"/>
<feGaussianBlur stdDeviation="8.5" result="effect1_foregroundBlur_17379_826"/>
</filter>
<filter id="filter8_f_17379_826" x="699" y="-183.998" width="202.84" height="632.99" filterUnits="userSpaceOnUse" color-interpolation-filters="sRGB">
<feFlood flood-opacity="0" result="BackgroundImageFix"/>
<feBlend mode="normal" in="SourceGraphic" in2="BackgroundImageFix" result="shape"/>
<feGaussianBlur stdDeviation="6.5" result="effect1_foregroundBlur_17379_826"/>
</filter>
<filter id="filter9_f_17379_826" x="702.106" y="-127.498" width="131.553" height="584.89" filterUnits="userSpaceOnUse" color-interpolation-filters="sRGB">
<feFlood flood-opacity="0" result="BackgroundImageFix"/>
<feBlend mode="normal" in="SourceGraphic" in2="BackgroundImageFix" result="shape"/>
<feGaussianBlur stdDeviation="4.5" result="effect1_foregroundBlur_17379_826"/>
</filter>
<filter id="filter10_f_17379_826" x="615.291" y="-129.998" width="120.153" height="584.289" filterUnits="userSpaceOnUse" color-interpolation-filters="sRGB">
<feFlood flood-opacity="0" result="BackgroundImageFix"/>
<feBlend mode="normal" in="SourceGraphic" in2="BackgroundImageFix" result="shape"/>
<feGaussianBlur stdDeviation="6" result="effect1_foregroundBlur_17379_826"/>
</filter>
<filter id="filter11_f_17379_826" x="702" y="-97.498" width="71.9795" height="562.747" filterUnits="userSpaceOnUse" color-interpolation-filters="sRGB">
<feFlood flood-opacity="0" result="BackgroundImageFix"/>
<feBlend mode="normal" in="SourceGraphic" in2="BackgroundImageFix" result="shape"/>
<feGaussianBlur stdDeviation="6" result="effect1_foregroundBlur_17379_826"/>
</filter>
<filter id="filter12_f_17379_826" x="672.545" y="-128.498" width="58.4546" height="592.236" filterUnits="userSpaceOnUse" color-interpolation-filters="sRGB">
<feFlood flood-opacity="0" result="BackgroundImageFix"/>
<feBlend mode="normal" in="SourceGraphic" in2="BackgroundImageFix" result="shape"/>
<feGaussianBlur stdDeviation="5" result="effect1_foregroundBlur_17379_826"/>
</filter>
<filter id="filter13_f_17379_826" x="696.545" y="-87.498" width="177.285" height="561.715" filterUnits="userSpaceOnUse" color-interpolation-filters="sRGB">
<feFlood flood-opacity="0" result="BackgroundImageFix"/>
<feBlend mode="normal" in="SourceGraphic" in2="BackgroundImageFix" result="shape"/>
<feGaussianBlur stdDeviation="9" result="effect1_foregroundBlur_17379_826"/>
</filter>
<filter id="filter14_f_17379_826" x="502" y="33.002" width="415" height="450" filterUnits="userSpaceOnUse" color-interpolation-filters="sRGB">
<feFlood flood-opacity="0" result="BackgroundImageFix"/>
<feBlend mode="normal" in="SourceGraphic" in2="BackgroundImageFix" result="shape"/>
<feGaussianBlur stdDeviation="20" result="effect1_foregroundBlur_17379_826"/>
</filter>
<linearGradient id="paint0_linear_17379_826" x1="720.5" y1="581.002" x2="720.5" y2="36.002" gradientUnits="userSpaceOnUse">
<stop stop-color="#FF1929"/>
<stop offset="1" stop-color="#FF1929"/>
</linearGradient>
<linearGradient id="paint1_linear_17379_826" x1="720.5" y1="401.002" x2="720.5" y2="-658.998" gradientUnits="userSpaceOnUse">
<stop stop-color="#FF000C" stop-opacity="0.6"/>
<stop offset="0.816289" stop-color="#E5393C" stop-opacity="0"/>
</linearGradient>
<linearGradient id="paint2_linear_17379_826" x1="716.5" y1="485.002" x2="716.5" y2="-657.998" gradientUnits="userSpaceOnUse">
<stop offset="0.0935984" stop-color="#FF000C" stop-opacity="0"/>
<stop offset="1" stop-color="#FF000C"/>
</linearGradient>
<linearGradient id="paint3_linear_17379_826" x1="716.5" y1="412.002" x2="716.5" y2="-657.998" gradientUnits="userSpaceOnUse">
<stop offset="0.242372" stop-color="#FFADAE" stop-opacity="0"/>
<stop offset="1" stop-color="#FFADAE"/>
</linearGradient>
<linearGradient id="paint4_linear_17379_826" x1="626.75" y1="433.002" x2="626.75" y2="-249.498" gradientUnits="userSpaceOnUse">
<stop stop-color="#970E10"/>
<stop offset="0.814696" stop-color="#970E10" stop-opacity="0"/>
</linearGradient>
<linearGradient id="paint5_linear_17379_826" x1="809.75" y1="432.502" x2="809.75" y2="-170.998" gradientUnits="userSpaceOnUse">
<stop stop-color="#F88789"/>
<stop offset="0.781008" stop-color="#F88789" stop-opacity="0"/>
</linearGradient>
<linearGradient id="paint6_linear_17379_826" x1="817" y1="438.002" x2="730.5" y2="112.502" gradientUnits="userSpaceOnUse">
<stop stop-color="#F1DCDD"/>
<stop offset="1" stop-color="#F1DCDD" stop-opacity="0"/>
</linearGradient>
<linearGradient id="paint7_linear_17379_826" x1="664.75" y1="441.002" x2="664.75" y2="-118.998" gradientUnits="userSpaceOnUse">
<stop stop-color="#970E10"/>
<stop offset="1" stop-color="#970E10" stop-opacity="0"/>
</linearGradient>
<linearGradient id="paint8_linear_17379_826" x1="742.75" y1="453.002" x2="742.75" y2="-222.498" gradientUnits="userSpaceOnUse">
<stop stop-color="#FFADAE"/>
<stop offset="0.586217" stop-color="#FFADAE" stop-opacity="0"/>
</linearGradient>
<linearGradient id="paint9_linear_17379_826" x1="699.75" y1="453.002" x2="699.75" y2="-118.498" gradientUnits="userSpaceOnUse">
<stop stop-color="#DCCECE"/>
<stop offset="1" stop-color="#DCCECE" stop-opacity="0"/>
</linearGradient>
<linearGradient id="paint10_linear_17379_826" x1="792.999" y1="454.002" x2="792.999" y2="-69.498" gradientUnits="userSpaceOnUse">
<stop stop-color="#F8878F"/>
<stop offset="0.820193" stop-color="#F8878F" stop-opacity="0"/>
</linearGradient>
</defs>
</svg>
