<svg width="60" height="83" viewBox="0 0 60 83" fill="none" xmlns="http://www.w3.org/2000/svg">
<g opacity="0.3">
<path d="M34 79L34.1133 79.6879C34.2146 80.3031 34.6969 80.7854 35.3121 80.8867L36 81L35.3121 81.1133C34.6969 81.2146 34.2146 81.6969 34.1133 82.3121L34 83L33.8867 82.3121C33.7854 81.6969 33.3031 81.2146 32.6879 81.1133L32 81L32.6879 80.8867C33.3031 80.7854 33.7854 80.3031 33.8867 79.6879L34 79Z" fill="url(#paint0_radial_16945_20396)"/>
</g>
<g opacity="0.3">
<path d="M43 65L43.1133 65.6879C43.2146 66.3031 43.6969 66.7854 44.3121 66.8867L45 67L44.3121 67.1133C43.6969 67.2146 43.2146 67.6969 43.1133 68.3121L43 69L42.8867 68.3121C42.7854 67.6969 42.3031 67.2146 41.6879 67.1133L41 67L41.6879 66.8867C42.3031 66.7854 42.7854 66.3031 42.8867 65.6879L43 65Z" fill="url(#paint1_radial_16945_20396)"/>
</g>
<g opacity="0.3">
<path d="M54 69L54.1133 69.6879C54.2146 70.3031 54.6969 70.7854 55.3121 70.8867L56 71L55.3121 71.1133C54.6969 71.2146 54.2146 71.6969 54.1133 72.3121L54 73L53.8867 72.3121C53.7854 71.6969 53.3031 71.2146 52.6879 71.1133L52 71L52.6879 70.8867C53.3031 70.7854 53.7854 70.3031 53.8867 69.6879L54 69Z" fill="white"/>
</g>
<g opacity="0.3">
<path d="M10 73.999L10.1133 74.6869C10.2146 75.3022 10.6969 75.7844 11.3121 75.8857L12 75.999L11.3121 76.1123C10.6969 76.2137 10.2146 76.6959 10.1133 77.3111L10 77.999L9.88669 77.3111C9.78535 76.6959 9.30314 76.2137 8.68789 76.1123L8 75.999L8.68789 75.8857C9.30314 75.7844 9.78535 75.3022 9.88669 74.6869L10 73.999Z" fill="url(#paint2_radial_16945_20396)"/>
</g>
<g opacity="0.3">
<path d="M53 54L53.1133 54.6879C53.2146 55.3031 53.6969 55.7854 54.3121 55.8867L55 56L54.3121 56.1133C53.6969 56.2146 53.2146 56.6969 53.1133 57.3121L53 58L52.8867 57.3121C52.7854 56.6969 52.3031 56.2146 51.6879 56.1133L51 56L51.6879 55.8867C52.3031 55.7854 52.7854 55.3031 52.8867 54.6879L53 54Z" fill="white"/>
</g>
<g opacity="0.3">
<path d="M15 24L15.1133 24.6879C15.2146 25.3031 15.6969 25.7854 16.3121 25.8867L17 26L16.3121 26.1133C15.6969 26.2146 15.2146 26.6969 15.1133 27.3121L15 28L14.8867 27.3121C14.7854 26.6969 14.3031 26.2146 13.6879 26.1133L13 26L13.6879 25.8867C14.3031 25.7854 14.7854 25.3031 14.8867 24.6879L15 24Z" fill="url(#paint3_radial_16945_20396)"/>
</g>
<g opacity="0.3">
<path d="M9 -0.000976562L9.11331 0.686913C9.21465 1.30216 9.69686 1.78438 10.3121 1.88572L11 1.99902L10.3121 2.11233C9.69686 2.21367 9.21465 2.69589 9.11331 3.31113L9 3.99902L8.88669 3.31113C8.78535 2.69589 8.30314 2.21367 7.68789 2.11233L7 1.99902L7.68789 1.88572C8.30314 1.78438 8.78535 1.30216 8.88669 0.686912L9 -0.000976562Z" fill="url(#paint4_radial_16945_20396)"/>
</g>
<g opacity="0.3">
<path d="M23 11L23.1133 11.6879C23.2146 12.3031 23.6969 12.7854 24.3121 12.8867L25 13L24.3121 13.1133C23.6969 13.2146 23.2146 13.6969 23.1133 14.3121L23 15L22.8867 14.3121C22.7854 13.6969 22.3031 13.2146 21.6879 13.1133L21 13L21.6879 12.8867C22.3031 12.7854 22.7854 12.3031 22.8867 11.6879L23 11Z" fill="url(#paint5_radial_16945_20396)"/>
</g>
<g opacity="0.3">
<path d="M45 31L45.1133 31.6879C45.2146 32.3031 45.6969 32.7854 46.3121 32.8867L47 33L46.3121 33.1133C45.6969 33.2146 45.2146 33.6969 45.1133 34.3121L45 35L44.8867 34.3121C44.7854 33.6969 44.3031 33.2146 43.6879 33.1133L43 33L43.6879 32.8867C44.3031 32.7854 44.7854 32.3031 44.8867 31.6879L45 31Z" fill="url(#paint6_radial_16945_20396)"/>
</g>
<g opacity="0.3">
<path d="M31 30L31.1133 30.6879C31.2146 31.3031 31.6969 31.7854 32.3121 31.8867L33 32L32.3121 32.1133C31.6969 32.2146 31.2146 32.6969 31.1133 33.3121L31 34L30.8867 33.3121C30.7854 32.6969 30.3031 32.2146 29.6879 32.1133L29 32L29.6879 31.8867C30.3031 31.7854 30.7854 31.3031 30.8867 30.6879L31 30Z" fill="url(#paint7_radial_16945_20396)"/>
</g>
<g opacity="0.3">
<path d="M53 18L53.1133 18.6879C53.2146 19.3031 53.6969 19.7854 54.3121 19.8867L55 20L54.3121 20.1133C53.6969 20.2146 53.2146 20.6969 53.1133 21.3121L53 22L52.8867 21.3121C52.7854 20.6969 52.3031 20.2146 51.6879 20.1133L51 20L51.6879 19.8867C52.3031 19.7854 52.7854 19.3031 52.8867 18.6879L53 18Z" fill="white"/>
</g>
<g opacity="0.3">
<path d="M58 41L58.1133 41.6879C58.2146 42.3031 58.6969 42.7854 59.3121 42.8867L60 43L59.3121 43.1133C58.6969 43.2146 58.2146 43.6969 58.1133 44.3121L58 45L57.8867 44.3121C57.7854 43.6969 57.3031 43.2146 56.6879 43.1133L56 43L56.6879 42.8867C57.3031 42.7854 57.7854 42.3031 57.8867 41.6879L58 41Z" fill="white"/>
</g>
<g opacity="0.3">
<path d="M34 49L34.1133 49.6879C34.2146 50.3031 34.6969 50.7854 35.3121 50.8867L36 51L35.3121 51.1133C34.6969 51.2146 34.2146 51.6969 34.1133 52.3121L34 53L33.8867 52.3121C33.7854 51.6969 33.3031 51.2146 32.6879 51.1133L32 51L32.6879 50.8867C33.3031 50.7854 33.7854 50.3031 33.8867 49.6879L34 49Z" fill="url(#paint8_radial_16945_20396)"/>
</g>
<g opacity="0.3">
<path d="M19 39L19.1133 39.6879C19.2146 40.3031 19.6969 40.7854 20.3121 40.8867L21 41L20.3121 41.1133C19.6969 41.2146 19.2146 41.6969 19.1133 42.3121L19 43L18.8867 42.3121C18.7854 41.6969 18.3031 41.2146 17.6879 41.1133L17 41L17.6879 40.8867C18.3031 40.7854 18.7854 40.3031 18.8867 39.6879L19 39Z" fill="url(#paint9_radial_16945_20396)"/>
</g>
<g opacity="0.3">
<path d="M25 63L25.1133 63.6879C25.2146 64.3031 25.6969 64.7854 26.3121 64.8867L27 65L26.3121 65.1133C25.6969 65.2146 25.2146 65.6969 25.1133 66.3121L25 67L24.8867 66.3121C24.7854 65.6969 24.3031 65.2146 23.6879 65.1133L23 65L23.6879 64.8867C24.3031 64.7854 24.7854 64.3031 24.8867 63.6879L25 63Z" fill="url(#paint10_radial_16945_20396)"/>
</g>
<g opacity="0.3">
<path d="M7 50.999L7.11331 51.6869C7.21465 52.3022 7.69686 52.7844 8.31211 52.8857L9 52.999L8.31211 53.1123C7.69686 53.2137 7.21465 53.6959 7.11331 54.3111L7 54.999L6.88669 54.3111C6.78535 53.6959 6.30314 53.2137 5.68789 53.1123L5 52.999L5.68789 52.8857C6.30314 52.7844 6.78535 52.3022 6.88669 51.6869L7 50.999Z" fill="url(#paint11_radial_16945_20396)"/>
</g>
<g opacity="0.3">
<path d="M2 18.999L2.11331 19.6869C2.21465 20.3022 2.69686 20.7844 3.31211 20.8857L4 20.999L3.31211 21.1123C2.69686 21.2137 2.21465 21.6959 2.11331 22.3111L2 22.999L1.88669 22.3111C1.78535 21.6959 1.30314 21.2137 0.687889 21.1123L0 20.999L0.687889 20.8857C1.30314 20.7844 1.78535 20.3022 1.88669 19.6869L2 18.999Z" fill="url(#paint12_radial_16945_20396)"/>
</g>
<g opacity="0.3">
<path d="M43 4L43.1133 4.68789C43.2146 5.30314 43.6969 5.78535 44.3121 5.88669L45 6L44.3121 6.11331C43.6969 6.21465 43.2146 6.69686 43.1133 7.31211L43 8L42.8867 7.31211C42.7854 6.69686 42.3031 6.21465 41.6879 6.11331L41 6L41.6879 5.88669C42.3031 5.78535 42.7854 5.30314 42.8867 4.68789L43 4Z" fill="url(#paint13_radial_16945_20396)"/>
</g>
<g opacity="0.3">
<path d="M41 16L41.1133 16.6879C41.2146 17.3031 41.6969 17.7854 42.3121 17.8867L43 18L42.3121 18.1133C41.6969 18.2146 41.2146 18.6969 41.1133 19.3121L41 20L40.8867 19.3121C40.7854 18.6969 40.3031 18.2146 39.6879 18.1133L39 18L39.6879 17.8867C40.3031 17.7854 40.7854 17.3031 40.8867 16.6879L41 16Z" fill="url(#paint14_radial_16945_20396)"/>
</g>
<defs>
<radialGradient id="paint0_radial_16945_20396" cx="0" cy="0" r="1" gradientUnits="userSpaceOnUse" gradientTransform="translate(34 81) rotate(90) scale(2)">
<stop offset="0.015" stop-color="white"/>
<stop offset="1" stop-color="#1B51F4" stop-opacity="0"/>
</radialGradient>
<radialGradient id="paint1_radial_16945_20396" cx="0" cy="0" r="1" gradientUnits="userSpaceOnUse" gradientTransform="translate(43 67) rotate(90) scale(2)">
<stop offset="0.015" stop-color="white"/>
<stop offset="1" stop-color="#1B51F4" stop-opacity="0"/>
</radialGradient>
<radialGradient id="paint2_radial_16945_20396" cx="0" cy="0" r="1" gradientUnits="userSpaceOnUse" gradientTransform="translate(10 75.999) rotate(90) scale(2)">
<stop offset="0.015" stop-color="white"/>
<stop offset="1" stop-color="#1B51F4" stop-opacity="0"/>
</radialGradient>
<radialGradient id="paint3_radial_16945_20396" cx="0" cy="0" r="1" gradientUnits="userSpaceOnUse" gradientTransform="translate(15 26) rotate(90) scale(2)">
<stop offset="0.015" stop-color="white"/>
<stop offset="1" stop-color="#1B51F4" stop-opacity="0"/>
</radialGradient>
<radialGradient id="paint4_radial_16945_20396" cx="0" cy="0" r="1" gradientUnits="userSpaceOnUse" gradientTransform="translate(9 1.99902) rotate(90) scale(2)">
<stop offset="0.015" stop-color="white"/>
<stop offset="1" stop-color="#1B51F4" stop-opacity="0"/>
</radialGradient>
<radialGradient id="paint5_radial_16945_20396" cx="0" cy="0" r="1" gradientUnits="userSpaceOnUse" gradientTransform="translate(23 13) rotate(90) scale(2)">
<stop offset="0.015" stop-color="white"/>
<stop offset="1" stop-color="#1B51F4" stop-opacity="0"/>
</radialGradient>
<radialGradient id="paint6_radial_16945_20396" cx="0" cy="0" r="1" gradientUnits="userSpaceOnUse" gradientTransform="translate(45 33) rotate(90) scale(2)">
<stop offset="0.015" stop-color="white"/>
<stop offset="1" stop-color="#1B51F4" stop-opacity="0"/>
</radialGradient>
<radialGradient id="paint7_radial_16945_20396" cx="0" cy="0" r="1" gradientUnits="userSpaceOnUse" gradientTransform="translate(31 32) rotate(90) scale(2)">
<stop offset="0.015" stop-color="white"/>
<stop offset="1" stop-color="#1B51F4" stop-opacity="0"/>
</radialGradient>
<radialGradient id="paint8_radial_16945_20396" cx="0" cy="0" r="1" gradientUnits="userSpaceOnUse" gradientTransform="translate(34 51) rotate(90) scale(2)">
<stop offset="0.015" stop-color="white"/>
<stop offset="1" stop-color="#1B51F4" stop-opacity="0"/>
</radialGradient>
<radialGradient id="paint9_radial_16945_20396" cx="0" cy="0" r="1" gradientUnits="userSpaceOnUse" gradientTransform="translate(19 41) rotate(90) scale(2)">
<stop offset="0.015" stop-color="white"/>
<stop offset="1" stop-color="#1B51F4" stop-opacity="0"/>
</radialGradient>
<radialGradient id="paint10_radial_16945_20396" cx="0" cy="0" r="1" gradientUnits="userSpaceOnUse" gradientTransform="translate(25 65) rotate(90) scale(2)">
<stop offset="0.015" stop-color="white"/>
<stop offset="1" stop-color="#1B51F4" stop-opacity="0"/>
</radialGradient>
<radialGradient id="paint11_radial_16945_20396" cx="0" cy="0" r="1" gradientUnits="userSpaceOnUse" gradientTransform="translate(7 52.999) rotate(90) scale(2)">
<stop offset="0.015" stop-color="white"/>
<stop offset="1" stop-color="#1B51F4" stop-opacity="0"/>
</radialGradient>
<radialGradient id="paint12_radial_16945_20396" cx="0" cy="0" r="1" gradientUnits="userSpaceOnUse" gradientTransform="translate(2 20.999) rotate(90) scale(2)">
<stop offset="0.015" stop-color="white"/>
<stop offset="1" stop-color="#1B51F4" stop-opacity="0"/>
</radialGradient>
<radialGradient id="paint13_radial_16945_20396" cx="0" cy="0" r="1" gradientUnits="userSpaceOnUse" gradientTransform="translate(43 6) rotate(90) scale(2)">
<stop offset="0.015" stop-color="white"/>
<stop offset="1" stop-color="#1B51F4" stop-opacity="0"/>
</radialGradient>
<radialGradient id="paint14_radial_16945_20396" cx="0" cy="0" r="1" gradientUnits="userSpaceOnUse" gradientTransform="translate(41 18) rotate(90) scale(2)">
<stop offset="0.015" stop-color="white"/>
<stop offset="1" stop-color="#1B51F4" stop-opacity="0"/>
</radialGradient>
</defs>
</svg>
