<svg width="1440" height="960" viewBox="0 0 1440 960" fill="none" xmlns="http://www.w3.org/2000/svg">
<g opacity="0.6" clip-path="url(#clip0_17519_6616)">
<path d="M-1.53125 252.51L-1.30464 253.886C-1.10196 255.117 -0.137525 256.081 1.09297 256.284L2.46875 256.51L1.09297 256.737C-0.137525 256.94 -1.10196 257.904 -1.30464 259.135L-1.53125 260.51L-1.75786 259.135C-1.96054 257.904 -2.92498 256.94 -4.15547 256.737L-5.53125 256.51L-4.15547 256.284C-2.92497 256.081 -1.96054 255.117 -1.75786 253.886L-1.53125 252.51Z" fill="url(#paint0_radial_17519_6616)"/>
<path d="M82.4687 84.5105L82.6954 85.8863C82.898 87.1168 83.8625 88.0812 85.093 88.2839L86.4687 88.5105L85.093 88.7371C83.8625 88.9398 82.898 89.9042 82.6954 91.1347L82.4687 92.5105L82.2421 91.1347C82.0395 89.9042 81.075 88.9398 79.8445 88.7371L78.4688 88.5105L79.8445 88.2839C81.075 88.0812 82.0395 87.1168 82.2421 85.8863L82.4687 84.5105Z" fill="url(#paint1_radial_17519_6616)"/>
<path d="M72.4687 149.51L72.6954 150.886C72.898 152.117 73.8625 153.081 75.093 153.284L76.4687 153.51L75.093 153.737C73.8625 153.94 72.898 154.904 72.6954 156.135L72.4687 157.51L72.2421 156.135C72.0395 154.904 71.075 153.94 69.8445 153.737L68.4688 153.51L69.8445 153.284C71.075 153.081 72.0395 152.117 72.2421 150.886L72.4687 149.51Z" fill="url(#paint2_radial_17519_6616)"/>
<path d="M109.469 183.51L109.695 184.886C109.898 186.117 110.862 187.081 112.093 187.284L113.469 187.51L112.093 187.737C110.862 187.94 109.898 188.904 109.695 190.135L109.469 191.51L109.242 190.135C109.039 188.904 108.075 187.94 106.845 187.737L105.469 187.51L106.845 187.284C108.075 187.081 109.039 186.117 109.242 184.886L109.469 183.51Z" fill="url(#paint3_radial_17519_6616)"/>
<path d="M133.469 59.5105L133.695 60.8863C133.898 62.1168 134.862 63.0812 136.093 63.2839L137.469 63.5105L136.093 63.7371C134.862 63.9398 133.898 64.9042 133.695 66.1347L133.469 67.5105L133.242 66.1347C133.039 64.9042 132.075 63.9398 130.845 63.7371L129.469 63.5105L130.845 63.2839C132.075 63.0812 133.039 62.1168 133.242 60.8863L133.469 59.5105Z" fill="url(#paint4_radial_17519_6616)"/>
<path d="M163.469 23.5105L163.695 24.8863C163.898 26.1168 164.862 27.0812 166.093 27.2839L167.469 27.5105L166.093 27.7371C164.862 27.9398 163.898 28.9042 163.695 30.1347L163.469 31.5105L163.242 30.1347C163.039 28.9042 162.075 27.9398 160.845 27.7371L159.469 27.5105L160.845 27.2839C162.075 27.0812 163.039 26.1168 163.242 24.8863L163.469 23.5105Z" fill="url(#paint5_radial_17519_6616)"/>
<path d="M164.469 214.51L164.695 215.886C164.898 217.117 165.862 218.081 167.093 218.284L168.469 218.51L167.093 218.737C165.862 218.94 164.898 219.904 164.695 221.135L164.469 222.51L164.242 221.135C164.039 219.904 163.075 218.94 161.845 218.737L160.469 218.51L161.845 218.284C163.075 218.081 164.039 217.117 164.242 215.886L164.469 214.51Z" fill="url(#paint6_radial_17519_6616)"/>
<path d="M197.469 20.5105L197.695 21.8863C197.898 23.1168 198.862 24.0812 200.093 24.2839L201.469 24.5105L200.093 24.7371C198.862 24.9398 197.898 25.9042 197.695 27.1347L197.469 28.5105L197.242 27.1347C197.039 25.9042 196.075 24.9398 194.845 24.7371L193.469 24.5105L194.845 24.2839C196.075 24.0812 197.039 23.1168 197.242 21.8863L197.469 20.5105Z" fill="url(#paint7_radial_17519_6616)"/>
<path d="M221.469 162.51L221.695 163.886C221.898 165.117 222.862 166.081 224.093 166.284L225.469 166.51L224.093 166.737C222.862 166.94 221.898 167.904 221.695 169.135L221.469 170.51L221.242 169.135C221.039 167.904 220.075 166.94 218.845 166.737L217.469 166.51L218.845 166.284C220.075 166.081 221.039 165.117 221.242 163.886L221.469 162.51Z" fill="url(#paint8_radial_17519_6616)"/>
<path d="M253.469 230.51L253.809 232.574C254.113 234.42 255.559 235.867 257.405 236.171L259.469 236.51L257.405 236.85C255.559 237.154 254.113 238.601 253.809 240.447L253.469 242.51L253.129 240.447C252.825 238.601 251.378 237.154 249.532 236.85L247.469 236.51L249.532 236.171C251.378 235.867 252.825 234.42 253.129 232.574L253.469 230.51Z" fill="url(#paint9_radial_17519_6616)"/>
<path d="M286.469 56.5105L286.695 57.8863C286.898 59.1168 287.862 60.0812 289.093 60.2839L290.469 60.5105L289.093 60.7371C287.862 60.9398 286.898 61.9042 286.695 63.1347L286.469 64.5105L286.242 63.1347C286.039 61.9042 285.075 60.9398 283.845 60.7371L282.469 60.5105L283.845 60.2839C285.075 60.0812 286.039 59.1168 286.242 57.8863L286.469 56.5105Z" fill="url(#paint10_radial_17519_6616)"/>
<path d="M310.469 115.51L310.809 117.574C311.113 119.42 312.559 120.867 314.405 121.171L316.469 121.51L314.405 121.85C312.559 122.154 311.113 123.601 310.809 125.447L310.469 127.51L310.129 125.447C309.825 123.601 308.378 122.154 306.532 121.85L304.469 121.51L306.532 121.171C308.378 120.867 309.825 119.42 310.129 117.574L310.469 115.51Z" fill="url(#paint11_radial_17519_6616)"/>
<path d="M330.469 18.5105L330.695 19.8863C330.898 21.1168 331.862 22.0812 333.093 22.2839L334.469 22.5105L333.093 22.7371C331.862 22.9398 330.898 23.9042 330.695 25.1347L330.469 26.5105L330.242 25.1347C330.039 23.9042 329.075 22.9398 327.845 22.7371L326.469 22.5105L327.845 22.2839C329.075 22.0812 330.039 21.1168 330.242 19.8863L330.469 18.5105Z" fill="url(#paint12_radial_17519_6616)"/>
<path d="M348.469 289.51L348.865 291.918C349.22 294.071 350.908 295.759 353.061 296.114L355.469 296.51L353.061 296.907C350.908 297.262 349.22 298.95 348.865 301.103L348.469 303.51L348.072 301.103C347.717 298.95 346.03 297.262 343.876 296.907L341.469 296.51L343.876 296.114C346.03 295.759 347.717 294.071 348.072 291.918L348.469 289.51Z" fill="url(#paint13_radial_17519_6616)"/>
<path d="M371.469 187.51L371.695 188.886C371.898 190.117 372.862 191.081 374.093 191.284L375.469 191.51L374.093 191.737C372.862 191.94 371.898 192.904 371.695 194.135L371.469 195.51L371.242 194.135C371.039 192.904 370.075 191.94 368.845 191.737L367.469 191.51L368.845 191.284C370.075 191.081 371.039 190.117 371.242 188.886L371.469 187.51Z" fill="url(#paint14_radial_17519_6616)"/>
<path d="M381.469 122.51L381.695 123.886C381.898 125.117 382.862 126.081 384.093 126.284L385.469 126.51L384.093 126.737C382.862 126.94 381.898 127.904 381.695 129.135L381.469 130.51L381.242 129.135C381.039 127.904 380.075 126.94 378.845 126.737L377.469 126.51L378.845 126.284C380.075 126.081 381.039 125.117 381.242 123.886L381.469 122.51Z" fill="url(#paint15_radial_17519_6616)"/>
<path d="M448.469 125.51L448.695 126.886C448.898 128.117 449.862 129.081 451.093 129.284L452.469 129.51L451.093 129.737C449.862 129.94 448.898 130.904 448.695 132.135L448.469 133.51L448.242 132.135C448.039 130.904 447.075 129.94 445.845 129.737L444.469 129.51L445.845 129.284C447.075 129.081 448.039 128.117 448.242 126.886L448.469 125.51Z" fill="url(#paint16_radial_17519_6616)"/>
<path d="M444.469 66.5105L444.695 67.8863C444.898 69.1168 445.862 70.0812 447.093 70.2839L448.469 70.5105L447.093 70.7371C445.862 70.9398 444.898 71.9042 444.695 73.1347L444.469 74.5105L444.242 73.1347C444.039 71.9042 443.075 70.9398 441.845 70.7371L440.469 70.5105L441.845 70.2839C443.075 70.0812 444.039 69.1168 444.242 67.8863L444.469 66.5105Z" fill="url(#paint17_radial_17519_6616)"/>
<path d="M496.469 177.51L496.695 178.886C496.898 180.117 497.862 181.081 499.093 181.284L500.469 181.51L499.093 181.737C497.862 181.94 496.898 182.904 496.695 184.135L496.469 185.51L496.242 184.135C496.039 182.904 495.075 181.94 493.845 181.737L492.469 181.51L493.845 181.284C495.075 181.081 496.039 180.117 496.242 178.886L496.469 177.51Z" fill="url(#paint18_radial_17519_6616)"/>
<path d="M530.469 225.51L530.695 226.886C530.898 228.117 531.862 229.081 533.093 229.284L534.469 229.51L533.093 229.737C531.862 229.94 530.898 230.904 530.695 232.135L530.469 233.51L530.242 232.135C530.039 230.904 529.075 229.94 527.845 229.737L526.469 229.51L527.845 229.284C529.075 229.081 530.039 228.117 530.242 226.886L530.469 225.51Z" fill="url(#paint19_radial_17519_6616)"/>
<path d="M547.469 312.51L547.695 313.886C547.898 315.117 548.862 316.081 550.093 316.284L551.469 316.51L550.093 316.737C548.862 316.94 547.898 317.904 547.695 319.135L547.469 320.51L547.242 319.135C547.039 317.904 546.075 316.94 544.845 316.737L543.469 316.51L544.845 316.284C546.075 316.081 547.039 315.117 547.242 313.886L547.469 312.51Z" fill="url(#paint20_radial_17519_6616)"/>
<path d="M551.469 88.5105L551.695 89.8863C551.898 91.1168 552.862 92.0812 554.093 92.2839L555.469 92.5105L554.093 92.7371C552.862 92.9398 551.898 93.9042 551.695 95.1347L551.469 96.5105L551.242 95.1347C551.039 93.9042 550.075 92.9398 548.845 92.7371L547.469 92.5105L548.845 92.2839C550.075 92.0812 551.039 91.1168 551.242 89.8863L551.469 88.5105Z" fill="url(#paint21_radial_17519_6616)"/>
<path d="M586.469 77.5105L586.695 78.8863C586.898 80.1168 587.862 81.0812 589.093 81.2839L590.469 81.5105L589.093 81.7371C587.862 81.9398 586.898 82.9042 586.695 84.1347L586.469 85.5105L586.242 84.1347C586.039 82.9042 585.075 81.9398 583.845 81.7371L582.469 81.5105L583.845 81.2839C585.075 81.0812 586.039 80.1168 586.242 78.8863L586.469 77.5105Z" fill="url(#paint22_radial_17519_6616)"/>
<path d="M625.469 241.51L625.695 242.886C625.898 244.117 626.862 245.081 628.093 245.284L629.469 245.51L628.093 245.737C626.862 245.94 625.898 246.904 625.695 248.135L625.469 249.51L625.242 248.135C625.039 246.904 624.075 245.94 622.845 245.737L621.469 245.51L622.845 245.284C624.075 245.081 625.039 244.117 625.242 242.886L625.469 241.51Z" fill="url(#paint23_radial_17519_6616)"/>
<path d="M640.469 118.51L640.695 119.886C640.898 121.117 641.862 122.081 643.093 122.284L644.469 122.51L643.093 122.737C641.862 122.94 640.898 123.904 640.695 125.135L640.469 126.51L640.242 125.135C640.039 123.904 639.075 122.94 637.845 122.737L636.469 122.51L637.845 122.284C639.075 122.081 640.039 121.117 640.242 119.886L640.469 118.51Z" fill="url(#paint24_radial_17519_6616)"/>
<path d="M686.469 31.5105L686.695 32.8863C686.898 34.1168 687.862 35.0812 689.093 35.2839L690.469 35.5105L689.093 35.7371C687.862 35.9398 686.898 36.9042 686.695 38.1347L686.469 39.5105L686.242 38.1347C686.039 36.9042 685.075 35.9398 683.845 35.7371L682.469 35.5105L683.845 35.2839C685.075 35.0812 686.039 34.1168 686.242 32.8863L686.469 31.5105Z" fill="url(#paint25_radial_17519_6616)"/>
<path d="M704.469 15.5105L704.695 16.8863C704.898 18.1168 705.862 19.0812 707.093 19.2839L708.469 19.5105L707.093 19.7371C705.862 19.9398 704.898 20.9042 704.695 22.1347L704.469 23.5105L704.242 22.1347C704.039 20.9042 703.075 19.9398 701.845 19.7371L700.469 19.5105L701.845 19.2839C703.075 19.0812 704.039 18.1168 704.242 16.8863L704.469 15.5105Z" fill="url(#paint26_radial_17519_6616)"/>
<path d="M824.469 205.51L824.695 206.886C824.898 208.117 825.862 209.081 827.093 209.284L828.469 209.51L827.093 209.737C825.862 209.94 824.898 210.904 824.695 212.135L824.469 213.51L824.242 212.135C824.039 210.904 823.075 209.94 821.845 209.737L820.469 209.51L821.845 209.284C823.075 209.081 824.039 208.117 824.242 206.886L824.469 205.51Z" fill="url(#paint27_radial_17519_6616)"/>
<path d="M827.469 139.51L827.865 141.918C828.22 144.071 829.908 145.759 832.061 146.114L834.469 146.51L832.061 146.907C829.908 147.262 828.22 148.95 827.865 151.103L827.469 153.51L827.072 151.103C826.717 148.95 825.03 147.262 822.876 146.907L820.469 146.51L822.876 146.114C825.03 145.759 826.717 144.071 827.072 141.918L827.469 139.51Z" fill="url(#paint28_radial_17519_6616)"/>
<path d="M889.469 191.51L889.695 192.886C889.898 194.117 890.862 195.081 892.093 195.284L893.469 195.51L892.093 195.737C890.862 195.94 889.898 196.904 889.695 198.135L889.469 199.51L889.242 198.135C889.039 196.904 888.075 195.94 886.845 195.737L885.469 195.51L886.845 195.284C888.075 195.081 889.039 194.117 889.242 192.886L889.469 191.51Z" fill="url(#paint29_radial_17519_6616)"/>
<path d="M940.469 309.51L940.695 310.886C940.898 312.117 941.862 313.081 943.093 313.284L944.469 313.51L943.093 313.737C941.862 313.94 940.898 314.904 940.695 316.135L940.469 317.51L940.242 316.135C940.039 314.904 939.075 313.94 937.845 313.737L936.469 313.51L937.845 313.284C939.075 313.081 940.039 312.117 940.242 310.886L940.469 309.51Z" fill="url(#paint30_radial_17519_6616)"/>
<path d="M996.469 130.51L996.695 131.886C996.898 133.117 997.862 134.081 999.093 134.284L1000.47 134.51L999.093 134.737C997.862 134.94 996.898 135.904 996.695 137.135L996.469 138.51L996.242 137.135C996.039 135.904 995.075 134.94 993.845 134.737L992.469 134.51L993.845 134.284C995.075 134.081 996.039 133.117 996.242 131.886L996.469 130.51Z" fill="url(#paint31_radial_17519_6616)"/>
<path d="M1015.47 99.5105L1015.7 100.886C1015.9 102.117 1016.86 103.081 1018.09 103.284L1019.47 103.51L1018.09 103.737C1016.86 103.94 1015.9 104.904 1015.7 106.135L1015.47 107.51L1015.24 106.135C1015.04 104.904 1014.08 103.94 1012.84 103.737L1011.47 103.51L1012.84 103.284C1014.08 103.081 1015.04 102.117 1015.24 100.886L1015.47 99.5105Z" fill="url(#paint32_radial_17519_6616)"/>
<path d="M1078.47 291.51L1078.7 292.886C1078.9 294.117 1079.86 295.081 1081.09 295.284L1082.47 295.51L1081.09 295.737C1079.86 295.94 1078.9 296.904 1078.7 298.135L1078.47 299.51L1078.24 298.135C1078.04 296.904 1077.08 295.94 1075.84 295.737L1074.47 295.51L1075.84 295.284C1077.08 295.081 1078.04 294.117 1078.24 292.886L1078.47 291.51Z" fill="url(#paint33_radial_17519_6616)"/>
<path d="M30.4687 416.51L30.6954 417.886C30.898 419.117 31.8625 420.081 33.093 420.284L34.4687 420.51L33.093 420.737C31.8625 420.94 30.898 421.904 30.6954 423.135L30.4687 424.51L30.2421 423.135C30.0395 421.904 29.075 420.94 27.8445 420.737L26.4688 420.51L27.8445 420.284C29.075 420.081 30.0395 419.117 30.2421 417.886L30.4687 416.51Z" fill="url(#paint34_radial_17519_6616)"/>
<path d="M44.4687 338.51L44.6954 339.886C44.898 341.117 45.8625 342.081 47.093 342.284L48.4687 342.51L47.093 342.737C45.8625 342.94 44.898 343.904 44.6954 345.135L44.4687 346.51L44.2421 345.135C44.0395 343.904 43.075 342.94 41.8445 342.737L40.4688 342.51L41.8445 342.284C43.075 342.081 44.0395 341.117 44.2421 339.886L44.4687 338.51Z" fill="url(#paint35_radial_17519_6616)"/>
<path d="M89.4687 425.51L89.6954 426.886C89.898 428.117 90.8625 429.081 92.093 429.284L93.4687 429.51L92.093 429.737C90.8625 429.94 89.898 430.904 89.6954 432.135L89.4687 433.51L89.2421 432.135C89.0395 430.904 88.075 429.94 86.8445 429.737L85.4688 429.51L86.8445 429.284C88.075 429.081 89.0395 428.117 89.2421 426.886L89.4687 425.51Z" fill="url(#paint36_radial_17519_6616)"/>
<path d="M186.469 461.51L186.695 462.886C186.898 464.117 187.862 465.081 189.093 465.284L190.469 465.51L189.093 465.737C187.862 465.94 186.898 466.904 186.695 468.135L186.469 469.51L186.242 468.135C186.039 466.904 185.075 465.94 183.845 465.737L182.469 465.51L183.845 465.284C185.075 465.081 186.039 464.117 186.242 462.886L186.469 461.51Z" fill="url(#paint37_radial_17519_6616)"/>
<path d="M227.469 521.51L227.695 522.886C227.898 524.117 228.862 525.081 230.093 525.284L231.469 525.51L230.093 525.737C228.862 525.94 227.898 526.904 227.695 528.135L227.469 529.51L227.242 528.135C227.039 526.904 226.075 525.94 224.845 525.737L223.469 525.51L224.845 525.284C226.075 525.081 227.039 524.117 227.242 522.886L227.469 521.51Z" fill="url(#paint38_radial_17519_6616)"/>
<path d="M239.469 448.51L239.695 449.886C239.898 451.117 240.862 452.081 242.093 452.284L243.469 452.51L242.093 452.737C240.862 452.94 239.898 453.904 239.695 455.135L239.469 456.51L239.242 455.135C239.039 453.904 238.075 452.94 236.845 452.737L235.469 452.51L236.845 452.284C238.075 452.081 239.039 451.117 239.242 449.886L239.469 448.51Z" fill="url(#paint39_radial_17519_6616)"/>
<path d="M278.469 627.51L278.695 628.886C278.898 630.117 279.862 631.081 281.093 631.284L282.469 631.51L281.093 631.737C279.862 631.94 278.898 632.904 278.695 634.135L278.469 635.51L278.242 634.135C278.039 632.904 277.075 631.94 275.845 631.737L274.469 631.51L275.845 631.284C277.075 631.081 278.039 630.117 278.242 628.886L278.469 627.51Z" fill="url(#paint40_radial_17519_6616)"/>
<path d="M312.469 496.51L312.695 497.886C312.898 499.117 313.862 500.081 315.093 500.284L316.469 500.51L315.093 500.737C313.862 500.94 312.898 501.904 312.695 503.135L312.469 504.51L312.242 503.135C312.039 501.904 311.075 500.94 309.845 500.737L308.469 500.51L309.845 500.284C311.075 500.081 312.039 499.117 312.242 497.886L312.469 496.51Z" fill="url(#paint41_radial_17519_6616)"/>
<path d="M399.469 482.51L399.695 483.886C399.898 485.117 400.862 486.081 402.093 486.284L403.469 486.51L402.093 486.737C400.862 486.94 399.898 487.904 399.695 489.135L399.469 490.51L399.242 489.135C399.039 487.904 398.075 486.94 396.845 486.737L395.469 486.51L396.845 486.284C398.075 486.081 399.039 485.117 399.242 483.886L399.469 482.51Z" fill="url(#paint42_radial_17519_6616)"/>
<path d="M436.469 429.51L436.695 430.886C436.898 432.117 437.862 433.081 439.093 433.284L440.469 433.51L439.093 433.737C437.862 433.94 436.898 434.904 436.695 436.135L436.469 437.51L436.242 436.135C436.039 434.904 435.075 433.94 433.845 433.737L432.469 433.51L433.845 433.284C435.075 433.081 436.039 432.117 436.242 430.886L436.469 429.51Z" fill="url(#paint43_radial_17519_6616)"/>
<path d="M359.469 549.51L359.695 550.886C359.898 552.117 360.862 553.081 362.093 553.284L363.469 553.51L362.093 553.737C360.862 553.94 359.898 554.904 359.695 556.135L359.469 557.51L359.242 556.135C359.039 554.904 358.075 553.94 356.845 553.737L355.469 553.51L356.845 553.284C358.075 553.081 359.039 552.117 359.242 550.886L359.469 549.51Z" fill="url(#paint44_radial_17519_6616)"/>
<path d="M470.469 517.51L470.695 518.886C470.898 520.117 471.862 521.081 473.093 521.284L474.469 521.51L473.093 521.737C471.862 521.94 470.898 522.904 470.695 524.135L470.469 525.51L470.242 524.135C470.039 522.904 469.075 521.94 467.845 521.737L466.469 521.51L467.845 521.284C469.075 521.081 470.039 520.117 470.242 518.886L470.469 517.51Z" fill="url(#paint45_radial_17519_6616)"/>
<path d="M506.469 547.51L506.695 548.886C506.898 550.117 507.862 551.081 509.093 551.284L510.469 551.51L509.093 551.737C507.862 551.94 506.898 552.904 506.695 554.135L506.469 555.51L506.242 554.135C506.039 552.904 505.075 551.94 503.845 551.737L502.469 551.51L503.845 551.284C505.075 551.081 506.039 550.117 506.242 548.886L506.469 547.51Z" fill="url(#paint46_radial_17519_6616)"/>
<path d="M530.469 376.51L530.695 377.886C530.898 379.117 531.862 380.081 533.093 380.284L534.469 380.51L533.093 380.737C531.862 380.94 530.898 381.904 530.695 383.135L530.469 384.51L530.242 383.135C530.039 381.904 529.075 380.94 527.845 380.737L526.469 380.51L527.845 380.284C529.075 380.081 530.039 379.117 530.242 377.886L530.469 376.51Z" fill="url(#paint47_radial_17519_6616)"/>
<path d="M544.469 403.51L544.695 404.886C544.898 406.117 545.862 407.081 547.093 407.284L548.469 407.51L547.093 407.737C545.862 407.94 544.898 408.904 544.695 410.135L544.469 411.51L544.242 410.135C544.039 408.904 543.075 407.94 541.845 407.737L540.469 407.51L541.845 407.284C543.075 407.081 544.039 406.117 544.242 404.886L544.469 403.51Z" fill="url(#paint48_radial_17519_6616)"/>
<path d="M586.469 515.51L586.695 516.886C586.898 518.117 587.862 519.081 589.093 519.284L590.469 519.51L589.093 519.737C587.862 519.94 586.898 520.904 586.695 522.135L586.469 523.51L586.242 522.135C586.039 520.904 585.075 519.94 583.845 519.737L582.469 519.51L583.845 519.284C585.075 519.081 586.039 518.117 586.242 516.886L586.469 515.51Z" fill="url(#paint49_radial_17519_6616)"/>
<path d="M608.469 420.51L608.695 421.886C608.898 423.117 609.862 424.081 611.093 424.284L612.469 424.51L611.093 424.737C609.862 424.94 608.898 425.904 608.695 427.135L608.469 428.51L608.242 427.135C608.039 425.904 607.075 424.94 605.845 424.737L604.469 424.51L605.845 424.284C607.075 424.081 608.039 423.117 608.242 421.886L608.469 420.51Z" fill="url(#paint50_radial_17519_6616)"/>
<path d="M617.469 538.51L617.695 539.886C617.898 541.117 618.862 542.081 620.093 542.284L621.469 542.51L620.093 542.737C618.862 542.94 617.898 543.904 617.695 545.135L617.469 546.51L617.242 545.135C617.039 543.904 616.075 542.94 614.845 542.737L613.469 542.51L614.845 542.284C616.075 542.081 617.039 541.117 617.242 539.886L617.469 538.51Z" fill="url(#paint51_radial_17519_6616)"/>
<path d="M655.469 411.51L655.695 412.886C655.898 414.117 656.862 415.081 658.093 415.284L659.469 415.51L658.093 415.737C656.862 415.94 655.898 416.904 655.695 418.135L655.469 419.51L655.242 418.135C655.039 416.904 654.075 415.94 652.845 415.737L651.469 415.51L652.845 415.284C654.075 415.081 655.039 414.117 655.242 412.886L655.469 411.51Z" fill="url(#paint52_radial_17519_6616)"/>
<path d="M793.469 368.51L793.695 369.886C793.898 371.117 794.862 372.081 796.093 372.284L797.469 372.51L796.093 372.737C794.862 372.94 793.898 373.904 793.695 375.135L793.469 376.51L793.242 375.135C793.039 373.904 792.075 372.94 790.845 372.737L789.469 372.51L790.845 372.284C792.075 372.081 793.039 371.117 793.242 369.886L793.469 368.51Z" fill="url(#paint53_radial_17519_6616)"/>
<path d="M818.469 360.51L818.695 361.886C818.898 363.117 819.862 364.081 821.093 364.284L822.469 364.51L821.093 364.737C819.862 364.94 818.898 365.904 818.695 367.135L818.469 368.51L818.242 367.135C818.039 365.904 817.075 364.94 815.845 364.737L814.469 364.51L815.845 364.284C817.075 364.081 818.039 363.117 818.242 361.886L818.469 360.51Z" fill="url(#paint54_radial_17519_6616)"/>
<path d="M875.469 335.51L875.695 336.886C875.898 338.117 876.862 339.081 878.093 339.284L879.469 339.51L878.093 339.737C876.862 339.94 875.898 340.904 875.695 342.135L875.469 343.51L875.242 342.135C875.039 340.904 874.075 339.94 872.845 339.737L871.469 339.51L872.845 339.284C874.075 339.081 875.039 338.117 875.242 336.886L875.469 335.51Z" fill="url(#paint55_radial_17519_6616)"/>
<path d="M899.469 529.51L899.695 530.886C899.898 532.117 900.862 533.081 902.093 533.284L903.469 533.51L902.093 533.737C900.862 533.94 899.898 534.904 899.695 536.135L899.469 537.51L899.242 536.135C899.039 534.904 898.075 533.94 896.845 533.737L895.469 533.51L896.845 533.284C898.075 533.081 899.039 532.117 899.242 530.886L899.469 529.51Z" fill="url(#paint56_radial_17519_6616)"/>
<path d="M920.469 391.51L920.695 392.886C920.898 394.117 921.862 395.081 923.093 395.284L924.469 395.51L923.093 395.737C921.862 395.94 920.898 396.904 920.695 398.135L920.469 399.51L920.242 398.135C920.039 396.904 919.075 395.94 917.845 395.737L916.469 395.51L917.845 395.284C919.075 395.081 920.039 394.117 920.242 392.886L920.469 391.51Z" fill="url(#paint57_radial_17519_6616)"/>
<path d="M952.469 430.51L952.695 431.886C952.898 433.117 953.862 434.081 955.093 434.284L956.469 434.51L955.093 434.737C953.862 434.94 952.898 435.904 952.695 437.135L952.469 438.51L952.242 437.135C952.039 435.904 951.075 434.94 949.845 434.737L948.469 434.51L949.845 434.284C951.075 434.081 952.039 433.117 952.242 431.886L952.469 430.51Z" fill="url(#paint58_radial_17519_6616)"/>
<path d="M981.469 383.51L981.695 384.886C981.898 386.117 982.862 387.081 984.093 387.284L985.469 387.51L984.093 387.737C982.862 387.94 981.898 388.904 981.695 390.135L981.469 391.51L981.242 390.135C981.039 388.904 980.075 387.94 978.845 387.737L977.469 387.51L978.845 387.284C980.075 387.081 981.039 386.117 981.242 384.886L981.469 383.51Z" fill="url(#paint59_radial_17519_6616)"/>
<path d="M1002.47 606.51L1002.7 607.886C1002.9 609.117 1003.86 610.081 1005.09 610.284L1006.47 610.51L1005.09 610.737C1003.86 610.94 1002.9 611.904 1002.7 613.135L1002.47 614.51L1002.24 613.135C1002.04 611.904 1001.08 610.94 999.845 610.737L998.469 610.51L999.845 610.284C1001.08 610.081 1002.04 609.117 1002.24 607.886L1002.47 606.51Z" fill="url(#paint60_radial_17519_6616)"/>
<path d="M1023.47 486.51L1023.7 487.886C1023.9 489.117 1024.86 490.081 1026.09 490.284L1027.47 490.51L1026.09 490.737C1024.86 490.94 1023.9 491.904 1023.7 493.135L1023.47 494.51L1023.24 493.135C1023.04 491.904 1022.08 490.94 1020.84 490.737L1019.47 490.51L1020.84 490.284C1022.08 490.081 1023.04 489.117 1023.24 487.886L1023.47 486.51Z" fill="url(#paint61_radial_17519_6616)"/>
<path d="M1277.47 839.51L1277.7 840.886C1277.9 842.117 1278.86 843.081 1280.09 843.284L1281.47 843.51L1280.09 843.737C1278.86 843.94 1277.9 844.904 1277.7 846.135L1277.47 847.51L1277.24 846.135C1277.04 844.904 1276.08 843.94 1274.84 843.737L1273.47 843.51L1274.84 843.284C1276.08 843.081 1277.04 842.117 1277.24 840.886L1277.47 839.51Z" fill="url(#paint62_radial_17519_6616)"/>
<path d="M13.4687 708.51L13.6954 709.886C13.898 711.117 14.8625 712.081 16.093 712.284L17.4687 712.51L16.093 712.737C14.8625 712.94 13.898 713.904 13.6954 715.135L13.4687 716.51L13.2421 715.135C13.0395 713.904 12.075 712.94 10.8445 712.737L9.46875 712.51L10.8445 712.284C12.075 712.081 13.0395 711.117 13.2421 709.886L13.4687 708.51Z" fill="url(#paint63_radial_17519_6616)"/>
<path d="M64.4687 829.51L64.6954 830.886C64.898 832.117 65.8625 833.081 67.093 833.284L68.4687 833.51L67.093 833.737C65.8625 833.94 64.898 834.904 64.6954 836.135L64.4687 837.51L64.2421 836.135C64.0395 834.904 63.075 833.94 61.8445 833.737L60.4688 833.51L61.8445 833.284C63.075 833.081 64.0395 832.117 64.2421 830.886L64.4687 829.51Z" fill="url(#paint64_radial_17519_6616)"/>
<path d="M61.4687 655.51L61.6954 656.886C61.898 658.117 62.8625 659.081 64.093 659.284L65.4687 659.51L64.093 659.737C62.8625 659.94 61.898 660.904 61.6954 662.135L61.4687 663.51L61.2421 662.135C61.0395 660.904 60.075 659.94 58.8445 659.737L57.4688 659.51L58.8445 659.284C60.075 659.081 61.0395 658.117 61.2421 656.886L61.4687 655.51Z" fill="url(#paint65_radial_17519_6616)"/>
<path d="M66.4687 760.51L66.6954 761.886C66.898 763.117 67.8625 764.081 69.093 764.284L70.4687 764.51L69.093 764.737C67.8625 764.94 66.898 765.904 66.6954 767.135L66.4687 768.51L66.2421 767.135C66.0395 765.904 65.075 764.94 63.8445 764.737L62.4688 764.51L63.8445 764.284C65.075 764.081 66.0395 763.117 66.2421 761.886L66.4687 760.51Z" fill="url(#paint66_radial_17519_6616)"/>
<path d="M148.469 867.51L148.695 868.886C148.898 870.117 149.862 871.081 151.093 871.284L152.469 871.51L151.093 871.737C149.862 871.94 148.898 872.904 148.695 874.135L148.469 875.51L148.242 874.135C148.039 872.904 147.075 871.94 145.845 871.737L144.469 871.51L145.845 871.284C147.075 871.081 148.039 870.117 148.242 868.886L148.469 867.51Z" fill="url(#paint67_radial_17519_6616)"/>
<path d="M215.469 627.51L215.695 628.886C215.898 630.117 216.862 631.081 218.093 631.284L219.469 631.51L218.093 631.737C216.862 631.94 215.898 632.904 215.695 634.135L215.469 635.51L215.242 634.135C215.039 632.904 214.075 631.94 212.845 631.737L211.469 631.51L212.845 631.284C214.075 631.081 215.039 630.117 215.242 628.886L215.469 627.51Z" fill="url(#paint68_radial_17519_6616)"/>
<path d="M373.469 876.51L373.695 877.886C373.898 879.117 374.862 880.081 376.093 880.284L377.469 880.51L376.093 880.737C374.862 880.94 373.898 881.904 373.695 883.135L373.469 884.51L373.242 883.135C373.039 881.904 372.075 880.94 370.845 880.737L369.469 880.51L370.845 880.284C372.075 880.081 373.039 879.117 373.242 877.886L373.469 876.51Z" fill="url(#paint69_radial_17519_6616)"/>
<path d="M257.469 738.51L257.695 739.886C257.898 741.117 258.862 742.081 260.093 742.284L261.469 742.51L260.093 742.737C258.862 742.94 257.898 743.904 257.695 745.135L257.469 746.51L257.242 745.135C257.039 743.904 256.075 742.94 254.845 742.737L253.469 742.51L254.845 742.284C256.075 742.081 257.039 741.117 257.242 739.886L257.469 738.51Z" fill="url(#paint70_radial_17519_6616)"/>
<path d="M290.469 680.51L290.695 681.886C290.898 683.117 291.862 684.081 293.093 684.284L294.469 684.51L293.093 684.737C291.862 684.94 290.898 685.904 290.695 687.135L290.469 688.51L290.242 687.135C290.039 685.904 289.075 684.94 287.845 684.737L286.469 684.51L287.845 684.284C289.075 684.081 290.039 683.117 290.242 681.886L290.469 680.51Z" fill="url(#paint71_radial_17519_6616)"/>
<path d="M353.469 744.51L353.695 745.886C353.898 747.117 354.862 748.081 356.093 748.284L357.469 748.51L356.093 748.737C354.862 748.94 353.898 749.904 353.695 751.135L353.469 752.51L353.242 751.135C353.039 749.904 352.075 748.94 350.845 748.737L349.469 748.51L350.845 748.284C352.075 748.081 353.039 747.117 353.242 745.886L353.469 744.51Z" fill="url(#paint72_radial_17519_6616)"/>
<path d="M426.469 645.51L426.809 647.574C427.113 649.42 428.559 650.867 430.405 651.171L432.469 651.51L430.405 651.85C428.559 652.154 427.113 653.601 426.809 655.447L426.469 657.51L426.129 655.447C425.825 653.601 424.378 652.154 422.532 651.85L420.469 651.51L422.532 651.171C424.378 650.867 425.825 649.42 426.129 647.574L426.469 645.51Z" fill="url(#paint73_radial_17519_6616)"/>
<path d="M549.469 854.51L549.695 855.886C549.898 857.117 550.862 858.081 552.093 858.284L553.469 858.51L552.093 858.737C550.862 858.94 549.898 859.904 549.695 861.135L549.469 862.51L549.242 861.135C549.039 859.904 548.075 858.94 546.845 858.737L545.469 858.51L546.845 858.284C548.075 858.081 549.039 857.117 549.242 855.886L549.469 854.51Z" fill="url(#paint74_radial_17519_6616)"/>
<path d="M646.469 768.51L646.922 771.262C647.327 773.723 649.256 775.652 651.717 776.057L654.469 776.51L651.717 776.964C649.256 777.369 647.327 779.298 646.922 781.759L646.469 784.51L646.016 781.759C645.61 779.298 643.681 777.369 641.22 776.964L638.469 776.51L641.22 776.057C643.681 775.652 645.61 773.723 646.016 771.262L646.469 768.51Z" fill="url(#paint75_radial_17519_6616)"/>
<path d="M695.469 878.51L695.695 879.886C695.898 881.117 696.862 882.081 698.093 882.284L699.469 882.51L698.093 882.737C696.862 882.94 695.898 883.904 695.695 885.135L695.469 886.51L695.242 885.135C695.039 883.904 694.075 882.94 692.845 882.737L691.469 882.51L692.845 882.284C694.075 882.081 695.039 881.117 695.242 879.886L695.469 878.51Z" fill="url(#paint76_radial_17519_6616)"/>
<path d="M1334.47 177.51L1334.7 178.886C1334.9 180.117 1335.86 181.081 1337.09 181.284L1338.47 181.51L1337.09 181.737C1335.86 181.94 1334.9 182.904 1334.7 184.135L1334.47 185.51L1334.24 184.135C1334.04 182.904 1333.08 181.94 1331.84 181.737L1330.47 181.51L1331.84 181.284C1333.08 181.081 1334.04 180.117 1334.24 178.886L1334.47 177.51Z" fill="url(#paint77_radial_17519_6616)"/>
<path d="M1182.47 788.51L1182.7 789.886C1182.9 791.117 1183.86 792.081 1185.09 792.284L1186.47 792.51L1185.09 792.737C1183.86 792.94 1182.9 793.904 1182.7 795.135L1182.47 796.51L1182.24 795.135C1182.04 793.904 1181.08 792.94 1179.84 792.737L1178.47 792.51L1179.84 792.284C1181.08 792.081 1182.04 791.117 1182.24 789.886L1182.47 788.51Z" fill="url(#paint78_radial_17519_6616)"/>
<path d="M1208.47 727.51L1208.7 728.886C1208.9 730.117 1209.86 731.081 1211.09 731.284L1212.47 731.51L1211.09 731.737C1209.86 731.94 1208.9 732.904 1208.7 734.135L1208.47 735.51L1208.24 734.135C1208.04 732.904 1207.08 731.94 1205.84 731.737L1204.47 731.51L1205.84 731.284C1207.08 731.081 1208.04 730.117 1208.24 728.886L1208.47 727.51Z" fill="url(#paint79_radial_17519_6616)"/>
<path d="M1373.47 130.51L1373.7 131.886C1373.9 133.117 1374.86 134.081 1376.09 134.284L1377.47 134.51L1376.09 134.737C1374.86 134.94 1373.9 135.904 1373.7 137.135L1373.47 138.51L1373.24 137.135C1373.04 135.904 1372.08 134.94 1370.84 134.737L1369.47 134.51L1370.84 134.284C1372.08 134.081 1373.04 133.117 1373.24 131.886L1373.47 130.51Z" fill="url(#paint80_radial_17519_6616)"/>
<path d="M678.469 672.51L678.809 674.574C679.113 676.42 680.559 677.867 682.405 678.171L684.469 678.51L682.405 678.85C680.559 679.154 679.113 680.601 678.809 682.447L678.469 684.51L678.129 682.447C677.825 680.601 676.378 679.154 674.532 678.85L672.469 678.51L674.532 678.171C676.378 677.867 677.825 676.42 678.129 674.574L678.469 672.51Z" fill="url(#paint81_radial_17519_6616)"/>
<path d="M751.469 800.51L751.695 801.886C751.898 803.117 752.862 804.081 754.093 804.284L755.469 804.51L754.093 804.737C752.862 804.94 751.898 805.904 751.695 807.135L751.469 808.51L751.242 807.135C751.039 805.904 750.075 804.94 748.845 804.737L747.469 804.51L748.845 804.284C750.075 804.081 751.039 803.117 751.242 801.886L751.469 800.51Z" fill="url(#paint82_radial_17519_6616)"/>
<path d="M1365.47 800.51L1365.7 801.886C1365.9 803.117 1366.86 804.081 1368.09 804.284L1369.47 804.51L1368.09 804.737C1366.86 804.94 1365.9 805.904 1365.7 807.135L1365.47 808.51L1365.24 807.135C1365.04 805.904 1364.08 804.94 1362.84 804.737L1361.47 804.51L1362.84 804.284C1364.08 804.081 1365.04 803.117 1365.24 801.886L1365.47 800.51Z" fill="url(#paint83_radial_17519_6616)"/>
<path d="M1388.47 481.51L1388.7 482.886C1388.9 484.117 1389.86 485.081 1391.09 485.284L1392.47 485.51L1391.09 485.737C1389.86 485.94 1388.9 486.904 1388.7 488.135L1388.47 489.51L1388.24 488.135C1388.04 486.904 1387.08 485.94 1385.84 485.737L1384.47 485.51L1385.84 485.284C1387.08 485.081 1388.04 484.117 1388.24 482.886L1388.47 481.51Z" fill="url(#paint84_radial_17519_6616)"/>
<path d="M758.469 610.51L758.865 612.918C759.22 615.071 760.908 616.759 763.061 617.114L765.469 617.51L763.061 617.907C760.908 618.262 759.22 619.95 758.865 622.103L758.469 624.51L758.072 622.103C757.717 619.95 756.03 618.262 753.876 617.907L751.469 617.51L753.876 617.114C756.03 616.759 757.717 615.071 758.072 612.918L758.469 610.51Z" fill="url(#paint85_radial_17519_6616)"/>
<path d="M1385.47 585.51L1385.7 586.886C1385.9 588.117 1386.86 589.081 1388.09 589.284L1389.47 589.51L1388.09 589.737C1386.86 589.94 1385.9 590.904 1385.7 592.135L1385.47 593.51L1385.24 592.135C1385.04 590.904 1384.08 589.94 1382.84 589.737L1381.47 589.51L1382.84 589.284C1384.08 589.081 1385.04 588.117 1385.24 586.886L1385.47 585.51Z" fill="url(#paint86_radial_17519_6616)"/>
<path d="M1407.47 266.51L1407.7 267.886C1407.9 269.117 1408.86 270.081 1410.09 270.284L1411.47 270.51L1410.09 270.737C1408.86 270.94 1407.9 271.904 1407.7 273.135L1407.47 274.51L1407.24 273.135C1407.04 271.904 1406.08 270.94 1404.84 270.737L1403.47 270.51L1404.84 270.284C1406.08 270.081 1407.04 269.117 1407.24 267.886L1407.47 266.51Z" fill="url(#paint87_radial_17519_6616)"/>
<path d="M874.469 838.51L874.695 839.886C874.898 841.117 875.862 842.081 877.093 842.284L878.469 842.51L877.093 842.737C875.862 842.94 874.898 843.904 874.695 845.135L874.469 846.51L874.242 845.135C874.039 843.904 873.075 842.94 871.845 842.737L870.469 842.51L871.845 842.284C873.075 842.081 874.039 841.117 874.242 839.886L874.469 838.51Z" fill="url(#paint88_radial_17519_6616)"/>
<path d="M1420.47 702.51L1420.7 703.886C1420.9 705.117 1421.86 706.081 1423.09 706.284L1424.47 706.51L1423.09 706.737C1421.86 706.94 1420.9 707.904 1420.7 709.135L1420.47 710.51L1420.24 709.135C1420.04 707.904 1419.08 706.94 1417.84 706.737L1416.47 706.51L1417.84 706.284C1419.08 706.081 1420.04 705.117 1420.24 703.886L1420.47 702.51Z" fill="url(#paint89_radial_17519_6616)"/>
<path d="M1443.47 383.51L1443.7 384.886C1443.9 386.117 1444.86 387.081 1446.09 387.284L1447.47 387.51L1446.09 387.737C1444.86 387.94 1443.9 388.904 1443.7 390.135L1443.47 391.51L1443.24 390.135C1443.04 388.904 1442.08 387.94 1440.84 387.737L1439.47 387.51L1440.84 387.284C1442.08 387.081 1443.04 386.117 1443.24 384.886L1443.47 383.51Z" fill="url(#paint90_radial_17519_6616)"/>
<path d="M864.469 614.51L864.809 616.574C865.113 618.42 866.559 619.867 868.405 620.171L870.469 620.51L868.405 620.85C866.559 621.154 865.113 622.601 864.809 624.447L864.469 626.51L864.129 624.447C863.825 622.601 862.378 621.154 860.532 620.85L858.469 620.51L860.532 620.171C862.378 619.867 863.825 618.42 864.129 616.574L864.469 614.51Z" fill="url(#paint91_radial_17519_6616)"/>
<path d="M903.469 35.5105L903.695 36.8863C903.898 38.1168 904.862 39.0812 906.093 39.2839L907.469 39.5105L906.093 39.7371C904.862 39.9398 903.898 40.9042 903.695 42.1347L903.469 43.5105L903.242 42.1347C903.039 40.9042 902.075 39.9398 900.845 39.7371L899.469 39.5105L900.845 39.2839C902.075 39.0812 903.039 38.1168 903.242 36.8863L903.469 35.5105Z" fill="url(#paint92_radial_17519_6616)"/>
<path d="M922.469 847.51L922.695 848.886C922.898 850.117 923.862 851.081 925.093 851.284L926.469 851.51L925.093 851.737C923.862 851.94 922.898 852.904 922.695 854.135L922.469 855.51L922.242 854.135C922.039 852.904 921.075 851.94 919.845 851.737L918.469 851.51L919.845 851.284C921.075 851.081 922.039 850.117 922.242 848.886L922.469 847.51Z" fill="url(#paint93_radial_17519_6616)"/>
<path d="M949.469 817.51L949.695 818.886C949.898 820.117 950.862 821.081 952.093 821.284L953.469 821.51L952.093 821.737C950.862 821.94 949.898 822.904 949.695 824.135L949.469 825.51L949.242 824.135C949.039 822.904 948.075 821.94 946.845 821.737L945.469 821.51L946.845 821.284C948.075 821.081 949.039 820.117 949.242 818.886L949.469 817.51Z" fill="url(#paint94_radial_17519_6616)"/>
<path d="M1200.47 180.51L1200.7 181.886C1200.9 183.117 1201.86 184.081 1203.09 184.284L1204.47 184.51L1203.09 184.737C1201.86 184.94 1200.9 185.904 1200.7 187.135L1200.47 188.51L1200.24 187.135C1200.04 185.904 1199.08 184.94 1197.84 184.737L1196.47 184.51L1197.84 184.284C1199.08 184.081 1200.04 183.117 1200.24 181.886L1200.47 180.51Z" fill="url(#paint95_radial_17519_6616)"/>
<path d="M1291.47 157.51L1291.7 158.886C1291.9 160.117 1292.86 161.081 1294.09 161.284L1295.47 161.51L1294.09 161.737C1292.86 161.94 1291.9 162.904 1291.7 164.135L1291.47 165.51L1291.24 164.135C1291.04 162.904 1290.08 161.94 1288.84 161.737L1287.47 161.51L1288.84 161.284C1290.08 161.081 1291.04 160.117 1291.24 158.886L1291.47 157.51Z" fill="url(#paint96_radial_17519_6616)"/>
<path d="M1245.47 66.5105L1245.7 67.8863C1245.9 69.1168 1246.86 70.0812 1248.09 70.2839L1249.47 70.5105L1248.09 70.7371C1246.86 70.9398 1245.9 71.9042 1245.7 73.1347L1245.47 74.5105L1245.24 73.1347C1245.04 71.9042 1244.08 70.9398 1242.84 70.7371L1241.47 70.5105L1242.84 70.2839C1244.08 70.0812 1245.04 69.1168 1245.24 67.8863L1245.47 66.5105Z" fill="url(#paint97_radial_17519_6616)"/>
<path d="M1278.47 685.51L1278.7 686.886C1278.9 688.117 1279.86 689.081 1281.09 689.284L1282.47 689.51L1281.09 689.737C1279.86 689.94 1278.9 690.904 1278.7 692.135L1278.47 693.51L1278.24 692.135C1278.04 690.904 1277.08 689.94 1275.84 689.737L1274.47 689.51L1275.84 689.284C1277.08 689.081 1278.04 688.117 1278.24 686.886L1278.47 685.51Z" fill="url(#paint98_radial_17519_6616)"/>
<path d="M1078.47 710.51L1078.7 711.886C1078.9 713.117 1079.86 714.081 1081.09 714.284L1082.47 714.51L1081.09 714.737C1079.86 714.94 1078.9 715.904 1078.7 717.135L1078.47 718.51L1078.24 717.135C1078.04 715.904 1077.08 714.94 1075.84 714.737L1074.47 714.51L1075.84 714.284C1077.08 714.081 1078.04 713.117 1078.24 711.886L1078.47 710.51Z" fill="url(#paint99_radial_17519_6616)"/>
<path d="M1151.47 501.51L1151.7 502.886C1151.9 504.117 1152.86 505.081 1154.09 505.284L1155.47 505.51L1154.09 505.737C1152.86 505.94 1151.9 506.904 1151.7 508.135L1151.47 509.51L1151.24 508.135C1151.04 506.904 1150.08 505.94 1148.84 505.737L1147.47 505.51L1148.84 505.284C1150.08 505.081 1151.04 504.117 1151.24 502.886L1151.47 501.51Z" fill="url(#paint100_radial_17519_6616)"/>
<path d="M975.469 705.51L975.695 706.886C975.898 708.117 976.862 709.081 978.093 709.284L979.469 709.51L978.093 709.737C976.862 709.94 975.898 710.904 975.695 712.135L975.469 713.51L975.242 712.135C975.039 710.904 974.075 709.94 972.845 709.737L971.469 709.51L972.845 709.284C974.075 709.081 975.039 708.117 975.242 706.886L975.469 705.51Z" fill="url(#paint101_radial_17519_6616)"/>
<path d="M1006.47 685.51L1006.7 686.886C1006.9 688.117 1007.86 689.081 1009.09 689.284L1010.47 689.51L1009.09 689.737C1007.86 689.94 1006.9 690.904 1006.7 692.135L1006.47 693.51L1006.24 692.135C1006.04 690.904 1005.08 689.94 1003.84 689.737L1002.47 689.51L1003.84 689.284C1005.08 689.081 1006.04 688.117 1006.24 686.886L1006.47 685.51Z" fill="url(#paint102_radial_17519_6616)"/>
<path d="M1076.47 146.51L1076.7 147.886C1076.9 149.117 1077.86 150.081 1079.09 150.284L1080.47 150.51L1079.09 150.737C1077.86 150.94 1076.9 151.904 1076.7 153.135L1076.47 154.51L1076.24 153.135C1076.04 151.904 1075.08 150.94 1073.84 150.737L1072.47 150.51L1073.84 150.284C1075.08 150.081 1076.04 149.117 1076.24 147.886L1076.47 146.51Z" fill="url(#paint103_radial_17519_6616)"/>
<path d="M1090.47 71.5105L1090.7 72.8863C1090.9 74.1168 1091.86 75.0812 1093.09 75.2839L1094.47 75.5105L1093.09 75.7371C1091.86 75.9398 1090.9 76.9042 1090.7 78.1347L1090.47 79.5105L1090.24 78.1347C1090.04 76.9042 1089.08 75.9398 1087.84 75.7371L1086.47 75.5105L1087.84 75.2839C1089.08 75.0812 1090.04 74.1168 1090.24 72.8863L1090.47 71.5105Z" fill="url(#paint104_radial_17519_6616)"/>
<path d="M1128.47 122.51L1128.7 123.886C1128.9 125.117 1129.86 126.081 1131.09 126.284L1132.47 126.51L1131.09 126.737C1129.86 126.94 1128.9 127.904 1128.7 129.135L1128.47 130.51L1128.24 129.135C1128.04 127.904 1127.08 126.94 1125.84 126.737L1124.47 126.51L1125.84 126.284C1127.08 126.081 1128.04 125.117 1128.24 123.886L1128.47 122.51Z" fill="url(#paint105_radial_17519_6616)"/>
</g>
<defs>
<radialGradient id="paint0_radial_17519_6616" cx="0" cy="0" r="1" gradientUnits="userSpaceOnUse" gradientTransform="translate(-1.53125 256.51) rotate(90) scale(4)">
<stop offset="0.015" stop-color="white"/>
<stop offset="1" stop-color="#1B51F4" stop-opacity="0"/>
</radialGradient>
<radialGradient id="paint1_radial_17519_6616" cx="0" cy="0" r="1" gradientUnits="userSpaceOnUse" gradientTransform="translate(82.4688 88.5105) rotate(90) scale(4)">
<stop offset="0.015" stop-color="white"/>
<stop offset="1" stop-color="#1B51F4" stop-opacity="0"/>
</radialGradient>
<radialGradient id="paint2_radial_17519_6616" cx="0" cy="0" r="1" gradientUnits="userSpaceOnUse" gradientTransform="translate(72.4688 153.51) rotate(90) scale(4)">
<stop offset="0.015" stop-color="white"/>
<stop offset="1" stop-color="#1B51F4" stop-opacity="0"/>
</radialGradient>
<radialGradient id="paint3_radial_17519_6616" cx="0" cy="0" r="1" gradientUnits="userSpaceOnUse" gradientTransform="translate(109.469 187.51) rotate(90) scale(4)">
<stop offset="0.015" stop-color="white"/>
<stop offset="1" stop-color="#1B51F4" stop-opacity="0"/>
</radialGradient>
<radialGradient id="paint4_radial_17519_6616" cx="0" cy="0" r="1" gradientUnits="userSpaceOnUse" gradientTransform="translate(133.469 63.5105) rotate(90) scale(4)">
<stop offset="0.015" stop-color="white"/>
<stop offset="1" stop-color="#1B51F4" stop-opacity="0"/>
</radialGradient>
<radialGradient id="paint5_radial_17519_6616" cx="0" cy="0" r="1" gradientUnits="userSpaceOnUse" gradientTransform="translate(163.469 27.5105) rotate(90) scale(4)">
<stop offset="0.015" stop-color="white"/>
<stop offset="1" stop-color="#1B51F4" stop-opacity="0"/>
</radialGradient>
<radialGradient id="paint6_radial_17519_6616" cx="0" cy="0" r="1" gradientUnits="userSpaceOnUse" gradientTransform="translate(164.469 218.51) rotate(90) scale(4)">
<stop offset="0.015" stop-color="white"/>
<stop offset="1" stop-color="#1B51F4" stop-opacity="0"/>
</radialGradient>
<radialGradient id="paint7_radial_17519_6616" cx="0" cy="0" r="1" gradientUnits="userSpaceOnUse" gradientTransform="translate(197.469 24.5105) rotate(90) scale(4)">
<stop offset="0.015" stop-color="white"/>
<stop offset="1" stop-color="#1B51F4" stop-opacity="0"/>
</radialGradient>
<radialGradient id="paint8_radial_17519_6616" cx="0" cy="0" r="1" gradientUnits="userSpaceOnUse" gradientTransform="translate(221.469 166.51) rotate(90) scale(4)">
<stop offset="0.015" stop-color="white"/>
<stop offset="1" stop-color="#1B51F4" stop-opacity="0"/>
</radialGradient>
<radialGradient id="paint9_radial_17519_6616" cx="0" cy="0" r="1" gradientUnits="userSpaceOnUse" gradientTransform="translate(253.469 236.51) rotate(90) scale(6)">
<stop offset="0.015" stop-color="white"/>
<stop offset="1" stop-color="#1B51F4" stop-opacity="0"/>
</radialGradient>
<radialGradient id="paint10_radial_17519_6616" cx="0" cy="0" r="1" gradientUnits="userSpaceOnUse" gradientTransform="translate(286.469 60.5105) rotate(90) scale(4)">
<stop offset="0.015" stop-color="white"/>
<stop offset="1" stop-color="#1B51F4" stop-opacity="0"/>
</radialGradient>
<radialGradient id="paint11_radial_17519_6616" cx="0" cy="0" r="1" gradientUnits="userSpaceOnUse" gradientTransform="translate(310.469 121.51) rotate(90) scale(6)">
<stop offset="0.015" stop-color="white"/>
<stop offset="1" stop-color="#1B51F4" stop-opacity="0"/>
</radialGradient>
<radialGradient id="paint12_radial_17519_6616" cx="0" cy="0" r="1" gradientUnits="userSpaceOnUse" gradientTransform="translate(330.469 22.5105) rotate(90) scale(4)">
<stop offset="0.015" stop-color="white"/>
<stop offset="1" stop-color="#1B51F4" stop-opacity="0"/>
</radialGradient>
<radialGradient id="paint13_radial_17519_6616" cx="0" cy="0" r="1" gradientUnits="userSpaceOnUse" gradientTransform="translate(348.469 296.51) rotate(90) scale(7)">
<stop offset="0.015" stop-color="white"/>
<stop offset="1" stop-color="#1B51F4" stop-opacity="0"/>
</radialGradient>
<radialGradient id="paint14_radial_17519_6616" cx="0" cy="0" r="1" gradientUnits="userSpaceOnUse" gradientTransform="translate(371.469 191.51) rotate(90) scale(4)">
<stop offset="0.015" stop-color="white"/>
<stop offset="1" stop-color="#1B51F4" stop-opacity="0"/>
</radialGradient>
<radialGradient id="paint15_radial_17519_6616" cx="0" cy="0" r="1" gradientUnits="userSpaceOnUse" gradientTransform="translate(381.469 126.51) rotate(90) scale(4)">
<stop offset="0.015" stop-color="white"/>
<stop offset="1" stop-color="#1B51F4" stop-opacity="0"/>
</radialGradient>
<radialGradient id="paint16_radial_17519_6616" cx="0" cy="0" r="1" gradientUnits="userSpaceOnUse" gradientTransform="translate(448.469 129.51) rotate(90) scale(4)">
<stop offset="0.015" stop-color="white"/>
<stop offset="1" stop-color="#1B51F4" stop-opacity="0"/>
</radialGradient>
<radialGradient id="paint17_radial_17519_6616" cx="0" cy="0" r="1" gradientUnits="userSpaceOnUse" gradientTransform="translate(444.469 70.5105) rotate(90) scale(4)">
<stop offset="0.015" stop-color="white"/>
<stop offset="1" stop-color="#1B51F4" stop-opacity="0"/>
</radialGradient>
<radialGradient id="paint18_radial_17519_6616" cx="0" cy="0" r="1" gradientUnits="userSpaceOnUse" gradientTransform="translate(496.469 181.51) rotate(90) scale(4)">
<stop offset="0.015" stop-color="white"/>
<stop offset="1" stop-color="#1B51F4" stop-opacity="0"/>
</radialGradient>
<radialGradient id="paint19_radial_17519_6616" cx="0" cy="0" r="1" gradientUnits="userSpaceOnUse" gradientTransform="translate(530.469 229.51) rotate(90) scale(4)">
<stop offset="0.015" stop-color="white"/>
<stop offset="1" stop-color="#1B51F4" stop-opacity="0"/>
</radialGradient>
<radialGradient id="paint20_radial_17519_6616" cx="0" cy="0" r="1" gradientUnits="userSpaceOnUse" gradientTransform="translate(547.469 316.51) rotate(90) scale(4)">
<stop offset="0.015" stop-color="white"/>
<stop offset="1" stop-color="#1B51F4" stop-opacity="0"/>
</radialGradient>
<radialGradient id="paint21_radial_17519_6616" cx="0" cy="0" r="1" gradientUnits="userSpaceOnUse" gradientTransform="translate(551.469 92.5105) rotate(90) scale(4)">
<stop offset="0.015" stop-color="white"/>
<stop offset="1" stop-color="#1B51F4" stop-opacity="0"/>
</radialGradient>
<radialGradient id="paint22_radial_17519_6616" cx="0" cy="0" r="1" gradientUnits="userSpaceOnUse" gradientTransform="translate(586.469 81.5105) rotate(90) scale(4)">
<stop offset="0.015" stop-color="white"/>
<stop offset="1" stop-color="#1B51F4" stop-opacity="0"/>
</radialGradient>
<radialGradient id="paint23_radial_17519_6616" cx="0" cy="0" r="1" gradientUnits="userSpaceOnUse" gradientTransform="translate(625.469 245.51) rotate(90) scale(4)">
<stop offset="0.015" stop-color="white"/>
<stop offset="1" stop-color="#1B51F4" stop-opacity="0"/>
</radialGradient>
<radialGradient id="paint24_radial_17519_6616" cx="0" cy="0" r="1" gradientUnits="userSpaceOnUse" gradientTransform="translate(640.469 122.51) rotate(90) scale(4)">
<stop offset="0.015" stop-color="white"/>
<stop offset="1" stop-color="#1B51F4" stop-opacity="0"/>
</radialGradient>
<radialGradient id="paint25_radial_17519_6616" cx="0" cy="0" r="1" gradientUnits="userSpaceOnUse" gradientTransform="translate(686.469 35.5105) rotate(90) scale(4)">
<stop offset="0.015" stop-color="white"/>
<stop offset="1" stop-color="#1B51F4" stop-opacity="0"/>
</radialGradient>
<radialGradient id="paint26_radial_17519_6616" cx="0" cy="0" r="1" gradientUnits="userSpaceOnUse" gradientTransform="translate(704.469 19.5105) rotate(90) scale(4)">
<stop offset="0.015" stop-color="white"/>
<stop offset="1" stop-color="#1B51F4" stop-opacity="0"/>
</radialGradient>
<radialGradient id="paint27_radial_17519_6616" cx="0" cy="0" r="1" gradientUnits="userSpaceOnUse" gradientTransform="translate(824.469 209.51) rotate(90) scale(4)">
<stop offset="0.015" stop-color="white"/>
<stop offset="1" stop-color="#1B51F4" stop-opacity="0"/>
</radialGradient>
<radialGradient id="paint28_radial_17519_6616" cx="0" cy="0" r="1" gradientUnits="userSpaceOnUse" gradientTransform="translate(827.469 146.51) rotate(90) scale(7)">
<stop offset="0.015" stop-color="white"/>
<stop offset="1" stop-color="#1B51F4" stop-opacity="0"/>
</radialGradient>
<radialGradient id="paint29_radial_17519_6616" cx="0" cy="0" r="1" gradientUnits="userSpaceOnUse" gradientTransform="translate(889.469 195.51) rotate(90) scale(4)">
<stop offset="0.015" stop-color="white"/>
<stop offset="1" stop-color="#1B51F4" stop-opacity="0"/>
</radialGradient>
<radialGradient id="paint30_radial_17519_6616" cx="0" cy="0" r="1" gradientUnits="userSpaceOnUse" gradientTransform="translate(940.469 313.51) rotate(90) scale(4)">
<stop offset="0.015" stop-color="white"/>
<stop offset="1" stop-color="#1B51F4" stop-opacity="0"/>
</radialGradient>
<radialGradient id="paint31_radial_17519_6616" cx="0" cy="0" r="1" gradientUnits="userSpaceOnUse" gradientTransform="translate(996.469 134.51) rotate(90) scale(4)">
<stop offset="0.015" stop-color="white"/>
<stop offset="1" stop-color="#1B51F4" stop-opacity="0"/>
</radialGradient>
<radialGradient id="paint32_radial_17519_6616" cx="0" cy="0" r="1" gradientUnits="userSpaceOnUse" gradientTransform="translate(1015.47 103.51) rotate(90) scale(4)">
<stop offset="0.015" stop-color="white"/>
<stop offset="1" stop-color="#1B51F4" stop-opacity="0"/>
</radialGradient>
<radialGradient id="paint33_radial_17519_6616" cx="0" cy="0" r="1" gradientUnits="userSpaceOnUse" gradientTransform="translate(1078.47 295.51) rotate(90) scale(4)">
<stop offset="0.015" stop-color="white"/>
<stop offset="1" stop-color="#1B51F4" stop-opacity="0"/>
</radialGradient>
<radialGradient id="paint34_radial_17519_6616" cx="0" cy="0" r="1" gradientUnits="userSpaceOnUse" gradientTransform="translate(30.4688 420.51) rotate(90) scale(4)">
<stop offset="0.015" stop-color="white"/>
<stop offset="1" stop-color="#1B51F4" stop-opacity="0"/>
</radialGradient>
<radialGradient id="paint35_radial_17519_6616" cx="0" cy="0" r="1" gradientUnits="userSpaceOnUse" gradientTransform="translate(44.4688 342.51) rotate(90) scale(4)">
<stop offset="0.015" stop-color="white"/>
<stop offset="1" stop-color="#1B51F4" stop-opacity="0"/>
</radialGradient>
<radialGradient id="paint36_radial_17519_6616" cx="0" cy="0" r="1" gradientUnits="userSpaceOnUse" gradientTransform="translate(89.4688 429.51) rotate(90) scale(4)">
<stop offset="0.015" stop-color="white"/>
<stop offset="1" stop-color="#1B51F4" stop-opacity="0"/>
</radialGradient>
<radialGradient id="paint37_radial_17519_6616" cx="0" cy="0" r="1" gradientUnits="userSpaceOnUse" gradientTransform="translate(186.469 465.51) rotate(90) scale(4)">
<stop offset="0.015" stop-color="white"/>
<stop offset="1" stop-color="#1B51F4" stop-opacity="0"/>
</radialGradient>
<radialGradient id="paint38_radial_17519_6616" cx="0" cy="0" r="1" gradientUnits="userSpaceOnUse" gradientTransform="translate(227.469 525.51) rotate(90) scale(4)">
<stop offset="0.015" stop-color="white"/>
<stop offset="1" stop-color="#1B51F4" stop-opacity="0"/>
</radialGradient>
<radialGradient id="paint39_radial_17519_6616" cx="0" cy="0" r="1" gradientUnits="userSpaceOnUse" gradientTransform="translate(239.469 452.51) rotate(90) scale(4)">
<stop offset="0.015" stop-color="white"/>
<stop offset="1" stop-color="#1B51F4" stop-opacity="0"/>
</radialGradient>
<radialGradient id="paint40_radial_17519_6616" cx="0" cy="0" r="1" gradientUnits="userSpaceOnUse" gradientTransform="translate(278.469 631.51) rotate(90) scale(4)">
<stop offset="0.015" stop-color="white"/>
<stop offset="1" stop-color="#1B51F4" stop-opacity="0"/>
</radialGradient>
<radialGradient id="paint41_radial_17519_6616" cx="0" cy="0" r="1" gradientUnits="userSpaceOnUse" gradientTransform="translate(312.469 500.51) rotate(90) scale(4)">
<stop offset="0.015" stop-color="white"/>
<stop offset="1" stop-color="#1B51F4" stop-opacity="0"/>
</radialGradient>
<radialGradient id="paint42_radial_17519_6616" cx="0" cy="0" r="1" gradientUnits="userSpaceOnUse" gradientTransform="translate(399.469 486.51) rotate(90) scale(4)">
<stop offset="0.015" stop-color="white"/>
<stop offset="1" stop-color="#1B51F4" stop-opacity="0"/>
</radialGradient>
<radialGradient id="paint43_radial_17519_6616" cx="0" cy="0" r="1" gradientUnits="userSpaceOnUse" gradientTransform="translate(436.469 433.51) rotate(90) scale(4)">
<stop offset="0.015" stop-color="white"/>
<stop offset="1" stop-color="#1B51F4" stop-opacity="0"/>
</radialGradient>
<radialGradient id="paint44_radial_17519_6616" cx="0" cy="0" r="1" gradientUnits="userSpaceOnUse" gradientTransform="translate(359.469 553.51) rotate(90) scale(4)">
<stop offset="0.015" stop-color="white"/>
<stop offset="1" stop-color="#1B51F4" stop-opacity="0"/>
</radialGradient>
<radialGradient id="paint45_radial_17519_6616" cx="0" cy="0" r="1" gradientUnits="userSpaceOnUse" gradientTransform="translate(470.469 521.51) rotate(90) scale(4)">
<stop offset="0.015" stop-color="white"/>
<stop offset="1" stop-color="#1B51F4" stop-opacity="0"/>
</radialGradient>
<radialGradient id="paint46_radial_17519_6616" cx="0" cy="0" r="1" gradientUnits="userSpaceOnUse" gradientTransform="translate(506.469 551.51) rotate(90) scale(4)">
<stop offset="0.015" stop-color="white"/>
<stop offset="1" stop-color="#1B51F4" stop-opacity="0"/>
</radialGradient>
<radialGradient id="paint47_radial_17519_6616" cx="0" cy="0" r="1" gradientUnits="userSpaceOnUse" gradientTransform="translate(530.469 380.51) rotate(90) scale(4)">
<stop offset="0.015" stop-color="white"/>
<stop offset="1" stop-color="#1B51F4" stop-opacity="0"/>
</radialGradient>
<radialGradient id="paint48_radial_17519_6616" cx="0" cy="0" r="1" gradientUnits="userSpaceOnUse" gradientTransform="translate(544.469 407.51) rotate(90) scale(4)">
<stop offset="0.015" stop-color="white"/>
<stop offset="1" stop-color="#1B51F4" stop-opacity="0"/>
</radialGradient>
<radialGradient id="paint49_radial_17519_6616" cx="0" cy="0" r="1" gradientUnits="userSpaceOnUse" gradientTransform="translate(586.469 519.51) rotate(90) scale(4)">
<stop offset="0.015" stop-color="white"/>
<stop offset="1" stop-color="#1B51F4" stop-opacity="0"/>
</radialGradient>
<radialGradient id="paint50_radial_17519_6616" cx="0" cy="0" r="1" gradientUnits="userSpaceOnUse" gradientTransform="translate(608.469 424.51) rotate(90) scale(4)">
<stop offset="0.015" stop-color="white"/>
<stop offset="1" stop-color="#1B51F4" stop-opacity="0"/>
</radialGradient>
<radialGradient id="paint51_radial_17519_6616" cx="0" cy="0" r="1" gradientUnits="userSpaceOnUse" gradientTransform="translate(617.469 542.51) rotate(90) scale(4)">
<stop offset="0.015" stop-color="white"/>
<stop offset="1" stop-color="#1B51F4" stop-opacity="0"/>
</radialGradient>
<radialGradient id="paint52_radial_17519_6616" cx="0" cy="0" r="1" gradientUnits="userSpaceOnUse" gradientTransform="translate(655.469 415.51) rotate(90) scale(4)">
<stop offset="0.015" stop-color="white"/>
<stop offset="1" stop-color="#1B51F4" stop-opacity="0"/>
</radialGradient>
<radialGradient id="paint53_radial_17519_6616" cx="0" cy="0" r="1" gradientUnits="userSpaceOnUse" gradientTransform="translate(793.469 372.51) rotate(90) scale(4)">
<stop offset="0.015" stop-color="white"/>
<stop offset="1" stop-color="#1B51F4" stop-opacity="0"/>
</radialGradient>
<radialGradient id="paint54_radial_17519_6616" cx="0" cy="0" r="1" gradientUnits="userSpaceOnUse" gradientTransform="translate(818.469 364.51) rotate(90) scale(4)">
<stop offset="0.015" stop-color="white"/>
<stop offset="1" stop-color="#1B51F4" stop-opacity="0"/>
</radialGradient>
<radialGradient id="paint55_radial_17519_6616" cx="0" cy="0" r="1" gradientUnits="userSpaceOnUse" gradientTransform="translate(875.469 339.51) rotate(90) scale(4)">
<stop offset="0.015" stop-color="white"/>
<stop offset="1" stop-color="#1B51F4" stop-opacity="0"/>
</radialGradient>
<radialGradient id="paint56_radial_17519_6616" cx="0" cy="0" r="1" gradientUnits="userSpaceOnUse" gradientTransform="translate(899.469 533.51) rotate(90) scale(4)">
<stop offset="0.015" stop-color="white"/>
<stop offset="1" stop-color="#1B51F4" stop-opacity="0"/>
</radialGradient>
<radialGradient id="paint57_radial_17519_6616" cx="0" cy="0" r="1" gradientUnits="userSpaceOnUse" gradientTransform="translate(920.469 395.51) rotate(90) scale(4)">
<stop offset="0.015" stop-color="white"/>
<stop offset="1" stop-color="#1B51F4" stop-opacity="0"/>
</radialGradient>
<radialGradient id="paint58_radial_17519_6616" cx="0" cy="0" r="1" gradientUnits="userSpaceOnUse" gradientTransform="translate(952.469 434.51) rotate(90) scale(4)">
<stop offset="0.015" stop-color="white"/>
<stop offset="1" stop-color="#1B51F4" stop-opacity="0"/>
</radialGradient>
<radialGradient id="paint59_radial_17519_6616" cx="0" cy="0" r="1" gradientUnits="userSpaceOnUse" gradientTransform="translate(981.469 387.51) rotate(90) scale(4)">
<stop offset="0.015" stop-color="white"/>
<stop offset="1" stop-color="#1B51F4" stop-opacity="0"/>
</radialGradient>
<radialGradient id="paint60_radial_17519_6616" cx="0" cy="0" r="1" gradientUnits="userSpaceOnUse" gradientTransform="translate(1002.47 610.51) rotate(90) scale(4)">
<stop offset="0.015" stop-color="white"/>
<stop offset="1" stop-color="#1B51F4" stop-opacity="0"/>
</radialGradient>
<radialGradient id="paint61_radial_17519_6616" cx="0" cy="0" r="1" gradientUnits="userSpaceOnUse" gradientTransform="translate(1023.47 490.51) rotate(90) scale(4)">
<stop offset="0.015" stop-color="white"/>
<stop offset="1" stop-color="#1B51F4" stop-opacity="0"/>
</radialGradient>
<radialGradient id="paint62_radial_17519_6616" cx="0" cy="0" r="1" gradientUnits="userSpaceOnUse" gradientTransform="translate(1277.47 843.51) rotate(90) scale(4)">
<stop offset="0.015" stop-color="white"/>
<stop offset="1" stop-color="#1B51F4" stop-opacity="0"/>
</radialGradient>
<radialGradient id="paint63_radial_17519_6616" cx="0" cy="0" r="1" gradientUnits="userSpaceOnUse" gradientTransform="translate(13.4688 712.51) rotate(90) scale(4)">
<stop offset="0.015" stop-color="white"/>
<stop offset="1" stop-color="#1B51F4" stop-opacity="0"/>
</radialGradient>
<radialGradient id="paint64_radial_17519_6616" cx="0" cy="0" r="1" gradientUnits="userSpaceOnUse" gradientTransform="translate(64.4688 833.51) rotate(90) scale(4)">
<stop offset="0.015" stop-color="white"/>
<stop offset="1" stop-color="#1B51F4" stop-opacity="0"/>
</radialGradient>
<radialGradient id="paint65_radial_17519_6616" cx="0" cy="0" r="1" gradientUnits="userSpaceOnUse" gradientTransform="translate(61.4688 659.51) rotate(90) scale(4)">
<stop offset="0.015" stop-color="white"/>
<stop offset="1" stop-color="#1B51F4" stop-opacity="0"/>
</radialGradient>
<radialGradient id="paint66_radial_17519_6616" cx="0" cy="0" r="1" gradientUnits="userSpaceOnUse" gradientTransform="translate(66.4688 764.51) rotate(90) scale(4)">
<stop offset="0.015" stop-color="white"/>
<stop offset="1" stop-color="#1B51F4" stop-opacity="0"/>
</radialGradient>
<radialGradient id="paint67_radial_17519_6616" cx="0" cy="0" r="1" gradientUnits="userSpaceOnUse" gradientTransform="translate(148.469 871.51) rotate(90) scale(4)">
<stop offset="0.015" stop-color="white"/>
<stop offset="1" stop-color="#1B51F4" stop-opacity="0"/>
</radialGradient>
<radialGradient id="paint68_radial_17519_6616" cx="0" cy="0" r="1" gradientUnits="userSpaceOnUse" gradientTransform="translate(215.469 631.51) rotate(90) scale(4)">
<stop offset="0.015" stop-color="white"/>
<stop offset="1" stop-color="#1B51F4" stop-opacity="0"/>
</radialGradient>
<radialGradient id="paint69_radial_17519_6616" cx="0" cy="0" r="1" gradientUnits="userSpaceOnUse" gradientTransform="translate(373.469 880.51) rotate(90) scale(4)">
<stop offset="0.015" stop-color="white"/>
<stop offset="1" stop-color="#1B51F4" stop-opacity="0"/>
</radialGradient>
<radialGradient id="paint70_radial_17519_6616" cx="0" cy="0" r="1" gradientUnits="userSpaceOnUse" gradientTransform="translate(257.469 742.51) rotate(90) scale(4)">
<stop offset="0.015" stop-color="white"/>
<stop offset="1" stop-color="#1B51F4" stop-opacity="0"/>
</radialGradient>
<radialGradient id="paint71_radial_17519_6616" cx="0" cy="0" r="1" gradientUnits="userSpaceOnUse" gradientTransform="translate(290.469 684.51) rotate(90) scale(4)">
<stop offset="0.015" stop-color="white"/>
<stop offset="1" stop-color="#1B51F4" stop-opacity="0"/>
</radialGradient>
<radialGradient id="paint72_radial_17519_6616" cx="0" cy="0" r="1" gradientUnits="userSpaceOnUse" gradientTransform="translate(353.469 748.51) rotate(90) scale(4)">
<stop offset="0.015" stop-color="white"/>
<stop offset="1" stop-color="#1B51F4" stop-opacity="0"/>
</radialGradient>
<radialGradient id="paint73_radial_17519_6616" cx="0" cy="0" r="1" gradientUnits="userSpaceOnUse" gradientTransform="translate(426.469 651.51) rotate(90) scale(6)">
<stop offset="0.015" stop-color="white"/>
<stop offset="1" stop-color="#1B51F4" stop-opacity="0"/>
</radialGradient>
<radialGradient id="paint74_radial_17519_6616" cx="0" cy="0" r="1" gradientUnits="userSpaceOnUse" gradientTransform="translate(549.469 858.51) rotate(90) scale(4)">
<stop offset="0.015" stop-color="white"/>
<stop offset="1" stop-color="#1B51F4" stop-opacity="0"/>
</radialGradient>
<radialGradient id="paint75_radial_17519_6616" cx="0" cy="0" r="1" gradientUnits="userSpaceOnUse" gradientTransform="translate(646.469 776.51) rotate(90) scale(8)">
<stop offset="0.015" stop-color="white"/>
<stop offset="1" stop-color="#1B51F4" stop-opacity="0"/>
</radialGradient>
<radialGradient id="paint76_radial_17519_6616" cx="0" cy="0" r="1" gradientUnits="userSpaceOnUse" gradientTransform="translate(695.469 882.51) rotate(90) scale(4)">
<stop offset="0.015" stop-color="white"/>
<stop offset="1" stop-color="#1B51F4" stop-opacity="0"/>
</radialGradient>
<radialGradient id="paint77_radial_17519_6616" cx="0" cy="0" r="1" gradientUnits="userSpaceOnUse" gradientTransform="translate(1334.47 181.51) rotate(90) scale(4)">
<stop offset="0.015" stop-color="white"/>
<stop offset="1" stop-color="#1B51F4" stop-opacity="0"/>
</radialGradient>
<radialGradient id="paint78_radial_17519_6616" cx="0" cy="0" r="1" gradientUnits="userSpaceOnUse" gradientTransform="translate(1182.47 792.51) rotate(90) scale(4)">
<stop offset="0.015" stop-color="white"/>
<stop offset="1" stop-color="#1B51F4" stop-opacity="0"/>
</radialGradient>
<radialGradient id="paint79_radial_17519_6616" cx="0" cy="0" r="1" gradientUnits="userSpaceOnUse" gradientTransform="translate(1208.47 731.51) rotate(90) scale(4)">
<stop offset="0.015" stop-color="white"/>
<stop offset="1" stop-color="#1B51F4" stop-opacity="0"/>
</radialGradient>
<radialGradient id="paint80_radial_17519_6616" cx="0" cy="0" r="1" gradientUnits="userSpaceOnUse" gradientTransform="translate(1373.47 134.51) rotate(90) scale(4)">
<stop offset="0.015" stop-color="white"/>
<stop offset="1" stop-color="#1B51F4" stop-opacity="0"/>
</radialGradient>
<radialGradient id="paint81_radial_17519_6616" cx="0" cy="0" r="1" gradientUnits="userSpaceOnUse" gradientTransform="translate(678.469 678.51) rotate(90) scale(6)">
<stop offset="0.015" stop-color="white"/>
<stop offset="1" stop-color="#1B51F4" stop-opacity="0"/>
</radialGradient>
<radialGradient id="paint82_radial_17519_6616" cx="0" cy="0" r="1" gradientUnits="userSpaceOnUse" gradientTransform="translate(751.469 804.51) rotate(90) scale(4)">
<stop offset="0.015" stop-color="white"/>
<stop offset="1" stop-color="#1B51F4" stop-opacity="0"/>
</radialGradient>
<radialGradient id="paint83_radial_17519_6616" cx="0" cy="0" r="1" gradientUnits="userSpaceOnUse" gradientTransform="translate(1365.47 804.51) rotate(90) scale(4)">
<stop offset="0.015" stop-color="white"/>
<stop offset="1" stop-color="#1B51F4" stop-opacity="0"/>
</radialGradient>
<radialGradient id="paint84_radial_17519_6616" cx="0" cy="0" r="1" gradientUnits="userSpaceOnUse" gradientTransform="translate(1388.47 485.51) rotate(90) scale(4)">
<stop offset="0.015" stop-color="white"/>
<stop offset="1" stop-color="#1B51F4" stop-opacity="0"/>
</radialGradient>
<radialGradient id="paint85_radial_17519_6616" cx="0" cy="0" r="1" gradientUnits="userSpaceOnUse" gradientTransform="translate(758.469 617.51) rotate(90) scale(7)">
<stop offset="0.015" stop-color="white"/>
<stop offset="1" stop-color="#1B51F4" stop-opacity="0"/>
</radialGradient>
<radialGradient id="paint86_radial_17519_6616" cx="0" cy="0" r="1" gradientUnits="userSpaceOnUse" gradientTransform="translate(1385.47 589.51) rotate(90) scale(4)">
<stop offset="0.015" stop-color="white"/>
<stop offset="1" stop-color="#1B51F4" stop-opacity="0"/>
</radialGradient>
<radialGradient id="paint87_radial_17519_6616" cx="0" cy="0" r="1" gradientUnits="userSpaceOnUse" gradientTransform="translate(1407.47 270.51) rotate(90) scale(4)">
<stop offset="0.015" stop-color="white"/>
<stop offset="1" stop-color="#1B51F4" stop-opacity="0"/>
</radialGradient>
<radialGradient id="paint88_radial_17519_6616" cx="0" cy="0" r="1" gradientUnits="userSpaceOnUse" gradientTransform="translate(874.469 842.51) rotate(90) scale(4)">
<stop offset="0.015" stop-color="white"/>
<stop offset="1" stop-color="#1B51F4" stop-opacity="0"/>
</radialGradient>
<radialGradient id="paint89_radial_17519_6616" cx="0" cy="0" r="1" gradientUnits="userSpaceOnUse" gradientTransform="translate(1420.47 706.51) rotate(90) scale(4)">
<stop offset="0.015" stop-color="white"/>
<stop offset="1" stop-color="#1B51F4" stop-opacity="0"/>
</radialGradient>
<radialGradient id="paint90_radial_17519_6616" cx="0" cy="0" r="1" gradientUnits="userSpaceOnUse" gradientTransform="translate(1443.47 387.51) rotate(90) scale(4)">
<stop offset="0.015" stop-color="white"/>
<stop offset="1" stop-color="#1B51F4" stop-opacity="0"/>
</radialGradient>
<radialGradient id="paint91_radial_17519_6616" cx="0" cy="0" r="1" gradientUnits="userSpaceOnUse" gradientTransform="translate(864.469 620.51) rotate(90) scale(6)">
<stop offset="0.015" stop-color="white"/>
<stop offset="1" stop-color="#1B51F4" stop-opacity="0"/>
</radialGradient>
<radialGradient id="paint92_radial_17519_6616" cx="0" cy="0" r="1" gradientUnits="userSpaceOnUse" gradientTransform="translate(903.469 39.5105) rotate(90) scale(4)">
<stop offset="0.015" stop-color="white"/>
<stop offset="1" stop-color="#1B51F4" stop-opacity="0"/>
</radialGradient>
<radialGradient id="paint93_radial_17519_6616" cx="0" cy="0" r="1" gradientUnits="userSpaceOnUse" gradientTransform="translate(922.469 851.51) rotate(90) scale(4)">
<stop offset="0.015" stop-color="white"/>
<stop offset="1" stop-color="#1B51F4" stop-opacity="0"/>
</radialGradient>
<radialGradient id="paint94_radial_17519_6616" cx="0" cy="0" r="1" gradientUnits="userSpaceOnUse" gradientTransform="translate(949.469 821.51) rotate(90) scale(4)">
<stop offset="0.015" stop-color="white"/>
<stop offset="1" stop-color="#1B51F4" stop-opacity="0"/>
</radialGradient>
<radialGradient id="paint95_radial_17519_6616" cx="0" cy="0" r="1" gradientUnits="userSpaceOnUse" gradientTransform="translate(1200.47 184.51) rotate(90) scale(4)">
<stop offset="0.015" stop-color="white"/>
<stop offset="1" stop-color="#1B51F4" stop-opacity="0"/>
</radialGradient>
<radialGradient id="paint96_radial_17519_6616" cx="0" cy="0" r="1" gradientUnits="userSpaceOnUse" gradientTransform="translate(1291.47 161.51) rotate(90) scale(4)">
<stop offset="0.015" stop-color="white"/>
<stop offset="1" stop-color="#1B51F4" stop-opacity="0"/>
</radialGradient>
<radialGradient id="paint97_radial_17519_6616" cx="0" cy="0" r="1" gradientUnits="userSpaceOnUse" gradientTransform="translate(1245.47 70.5105) rotate(90) scale(4)">
<stop offset="0.015" stop-color="white"/>
<stop offset="1" stop-color="#1B51F4" stop-opacity="0"/>
</radialGradient>
<radialGradient id="paint98_radial_17519_6616" cx="0" cy="0" r="1" gradientUnits="userSpaceOnUse" gradientTransform="translate(1278.47 689.51) rotate(90) scale(4)">
<stop offset="0.015" stop-color="white"/>
<stop offset="1" stop-color="#1B51F4" stop-opacity="0"/>
</radialGradient>
<radialGradient id="paint99_radial_17519_6616" cx="0" cy="0" r="1" gradientUnits="userSpaceOnUse" gradientTransform="translate(1078.47 714.51) rotate(90) scale(4)">
<stop offset="0.015" stop-color="white"/>
<stop offset="1" stop-color="#1B51F4" stop-opacity="0"/>
</radialGradient>
<radialGradient id="paint100_radial_17519_6616" cx="0" cy="0" r="1" gradientUnits="userSpaceOnUse" gradientTransform="translate(1151.47 505.51) rotate(90) scale(4)">
<stop offset="0.015" stop-color="white"/>
<stop offset="1" stop-color="#1B51F4" stop-opacity="0"/>
</radialGradient>
<radialGradient id="paint101_radial_17519_6616" cx="0" cy="0" r="1" gradientUnits="userSpaceOnUse" gradientTransform="translate(975.469 709.51) rotate(90) scale(4)">
<stop offset="0.015" stop-color="white"/>
<stop offset="1" stop-color="#1B51F4" stop-opacity="0"/>
</radialGradient>
<radialGradient id="paint102_radial_17519_6616" cx="0" cy="0" r="1" gradientUnits="userSpaceOnUse" gradientTransform="translate(1006.47 689.51) rotate(90) scale(4)">
<stop offset="0.015" stop-color="white"/>
<stop offset="1" stop-color="#1B51F4" stop-opacity="0"/>
</radialGradient>
<radialGradient id="paint103_radial_17519_6616" cx="0" cy="0" r="1" gradientUnits="userSpaceOnUse" gradientTransform="translate(1076.47 150.51) rotate(90) scale(4)">
<stop offset="0.015" stop-color="white"/>
<stop offset="1" stop-color="#1B51F4" stop-opacity="0"/>
</radialGradient>
<radialGradient id="paint104_radial_17519_6616" cx="0" cy="0" r="1" gradientUnits="userSpaceOnUse" gradientTransform="translate(1090.47 75.5105) rotate(90) scale(4)">
<stop offset="0.015" stop-color="white"/>
<stop offset="1" stop-color="#1B51F4" stop-opacity="0"/>
</radialGradient>
<radialGradient id="paint105_radial_17519_6616" cx="0" cy="0" r="1" gradientUnits="userSpaceOnUse" gradientTransform="translate(1128.47 126.51) rotate(90) scale(4)">
<stop offset="0.015" stop-color="white"/>
<stop offset="1" stop-color="#1B51F4" stop-opacity="0"/>
</radialGradient>
<clipPath id="clip0_17519_6616">
<rect width="1440" height="960" fill="white"/>
</clipPath>
</defs>
</svg>
