<svg width="412" height="532" viewBox="0 0 412 532" fill="none" xmlns="http://www.w3.org/2000/svg">
<g opacity="0.4">
<g opacity="0.5" filter="url(#filter0_f_16945_20564)">
<path d="M730.308 479.055C744.94 515.036 737.458 539.389 707.863 552.115C678.268 564.84 655.989 580.636 641.025 599.505C626.062 618.373 608.77 636.364 589.151 653.477C569.532 670.59 545.923 686.606 518.323 701.525C490.723 716.444 464.454 714.689 439.514 696.259C414.575 677.83 394.79 653.038 380.158 621.883C365.527 590.729 362.534 556.722 371.18 519.863C379.826 483.004 377.664 449.875 364.696 420.475C351.727 391.076 348.07 360.141 353.723 327.67C359.375 295.199 371.845 267.774 391.132 245.395C410.418 223.017 430.204 199.98 450.488 176.285C470.772 152.59 493.384 155.003 518.323 183.525C543.262 212.047 564.71 229.379 582.667 235.522C600.623 241.666 628.223 238.813 665.466 226.966C702.709 215.118 722.162 229.379 723.824 269.749C725.487 310.118 723.325 346.099 717.34 377.693C711.354 409.286 715.677 443.073 730.308 479.055Z" fill="#3A3E4B"/>
</g>
<g filter="url(#filter1_f_16945_20564)">
<path d="M379.16 847.645C393.791 883.626 386.309 907.979 356.715 920.704C327.12 933.43 304.84 949.226 289.877 968.094C274.913 986.963 257.622 1004.95 238.003 1022.07C218.384 1039.18 194.774 1055.2 167.175 1070.11C139.575 1085.03 113.305 1083.28 88.3659 1064.85C63.4264 1046.42 43.6411 1021.63 29.0099 990.473C14.3788 959.319 11.3861 925.312 20.0317 888.453C28.6774 851.594 26.516 818.465 13.5475 789.065C0.578951 759.666 -3.07884 728.731 2.57411 696.26C8.22705 663.789 20.6968 636.364 39.9833 613.985C59.2698 591.607 79.0551 568.57 99.3392 544.875C119.623 521.18 142.235 523.593 167.175 552.115C192.114 580.637 213.562 597.969 231.518 604.112C249.475 610.255 277.075 607.403 314.317 595.556C351.56 583.708 371.013 597.969 372.676 638.338C374.338 678.708 372.177 714.689 366.192 746.283C360.206 777.876 364.529 811.663 379.16 847.645Z" fill="#43464A"/>
</g>
<g style="mix-blend-mode:plus-lighter" filter="url(#filter2_f_16945_20564)">
<path d="M778.161 361.907C792.137 393.434 784.99 414.772 756.721 425.921C728.453 437.071 707.172 450.912 692.879 467.444C678.586 483.977 662.069 499.74 643.329 514.734C624.589 529.729 602.038 543.762 575.675 556.834C549.312 569.906 524.22 568.368 500.398 552.22C476.576 536.072 457.678 514.35 443.702 487.052C429.727 459.755 426.868 429.958 435.126 397.663C443.384 365.367 441.32 336.34 428.933 310.58C416.545 284.821 413.051 257.715 418.451 229.264C423.851 200.814 435.761 176.784 454.184 157.176C472.606 137.568 491.505 117.383 510.88 96.622C530.255 75.8605 551.853 77.9751 575.675 102.966C599.497 127.956 619.984 143.143 637.136 148.526C654.287 153.908 680.65 151.409 716.224 141.028C751.798 130.648 770.379 143.143 771.967 178.514C773.556 213.886 771.491 245.412 765.774 273.094C760.056 300.776 764.186 330.38 778.161 361.907Z" fill="#B0B0B0"/>
</g>
<g style="mix-blend-mode:plus-lighter" opacity="0.3" filter="url(#filter3_f_16945_20564)">
<path d="M193.09 180.635C209.03 191.99 200.879 199.675 168.636 203.691C136.392 207.707 112.12 212.692 95.8168 218.646C79.5141 224.6 60.6754 230.278 39.3007 235.678C17.926 241.078 -7.79609 246.133 -37.8656 250.841C-67.935 255.549 -96.5554 254.995 -123.727 249.179C-150.898 243.363 -172.454 235.54 -188.394 225.708C-204.335 215.876 -207.595 205.145 -198.176 193.513C-188.756 181.882 -191.111 171.427 -205.24 162.149C-219.369 152.872 -223.354 143.109 -217.196 132.863C-211.037 122.616 -197.451 113.961 -176.439 106.899C-155.426 99.837 -133.87 92.5672 -111.771 85.0897C-89.672 77.6122 -65.0368 78.3738 -37.8656 87.3745C-10.6944 96.3752 12.6729 101.845 32.2362 103.783C51.7994 105.722 81.8689 104.822 122.445 101.083C163.02 97.3445 184.214 101.845 186.025 114.584C187.837 127.324 185.482 138.678 178.961 148.648C172.44 158.618 177.149 169.281 193.09 180.635Z" fill="#91959C"/>
</g>
</g>
<defs>
<filter id="filter0_f_16945_20564" x="227.148" y="36.1562" width="634.42" height="799.38" filterUnits="userSpaceOnUse" color-interpolation-filters="sRGB">
<feFlood flood-opacity="0" result="BackgroundImageFix"/>
<feBlend mode="normal" in="SourceGraphic" in2="BackgroundImageFix" result="shape"/>
<feGaussianBlur stdDeviation="62" result="effect1_foregroundBlur_16945_20564"/>
</filter>
<filter id="filter1_f_16945_20564" x="-124" y="404.746" width="634.42" height="799.38" filterUnits="userSpaceOnUse" color-interpolation-filters="sRGB">
<feFlood flood-opacity="0" result="BackgroundImageFix"/>
<feBlend mode="normal" in="SourceGraphic" in2="BackgroundImageFix" result="shape"/>
<feGaussianBlur stdDeviation="62" result="effect1_foregroundBlur_16945_20564"/>
</filter>
<filter id="filter2_f_16945_20564" x="291.992" y="-41.5098" width="617.104" height="731.115" filterUnits="userSpaceOnUse" color-interpolation-filters="sRGB">
<feFlood flood-opacity="0" result="BackgroundImageFix"/>
<feBlend mode="normal" in="SourceGraphic" in2="BackgroundImageFix" result="shape"/>
<feGaussianBlur stdDeviation="62" result="effect1_foregroundBlur_16945_20564"/>
</filter>
<filter id="filter3_f_16945_20564" x="-344" y="-44" width="669" height="422" filterUnits="userSpaceOnUse" color-interpolation-filters="sRGB">
<feFlood flood-opacity="0" result="BackgroundImageFix"/>
<feBlend mode="normal" in="SourceGraphic" in2="BackgroundImageFix" result="shape"/>
<feGaussianBlur stdDeviation="62" result="effect1_foregroundBlur_16945_20564"/>
</filter>
</defs>
</svg>
